<?xml version="1.0" encoding="utf-8"?>
<!-- Generator: Adobe Illustrator 25.2.3, SVG Export Plug-In . SVG Version: 6.00 Build 0)  -->
<svg version="1.1" id="Слой_1" xmlns="http://www.w3.org/2000/svg" xmlns:xlink="http://www.w3.org/1999/xlink" x="0px" y="0px"
	 viewBox="0 0 166 172" style="enable-background:new 0 0 166 172;" xml:space="preserve">
<style type="text/css">
	.st0{fill:none;stroke:#009ACF;stroke-miterlimit:10;}
	.st1{fill:#FFFFFF;}
	.st2{fill:#FFFFFF;stroke:#009ACF;stroke-width:1.9248;stroke-miterlimit:10;}
	.st3{fill:#FFFFFF;stroke:#009ACF;stroke-width:1.4563;stroke-miterlimit:10;}
	.st4{fill:none;stroke:#009ACF;stroke-width:1.6598;stroke-miterlimit:10;}
	.st5{fill:none;stroke:#009ACF;stroke-width:1.5573;stroke-linecap:round;stroke-linejoin:round;stroke-miterlimit:10;}
	.st6{display:none;clip-path:url(#SVGID_2_);}
	.st7{display:inline;fill:#009ACF;}
	.st8{clip-path:url(#SVGID_2_);}
	.st9{fill:#009ACF;}
</style>
<g>
	<path class="st0" d="M146.13,125.34l-130.21,0.13c-4.23,0-7.66-3.42-7.67-7.65L8.15,23.8c0-4.23,3.42-7.66,7.65-7.67L146.02,16
		c4.23,0,7.66,3.42,7.67,7.65l0.1,94.02C153.79,121.9,150.36,125.34,146.13,125.34z"/>
	<path class="st0" d="M135.22,116.16l-108.4,0.11c-3.5,0-6.33-2.83-6.34-6.32l-0.08-78.3c0-3.5,2.83-6.33,6.32-6.34l108.4-0.11
		c3.5,0,6.33,2.83,6.34,6.32l0.08,78.3C141.54,113.32,138.71,116.16,135.22,116.16z"/>
	<path class="st0" d="M129.84,110.8l-97.66,0.1c-3.7,0-6.71-2.99-6.71-6.7L25.4,37.38c0-3.7,2.99-6.71,6.7-6.71l97.66-0.1
		c3.7,0,6.71,2.99,6.71,6.7l0.07,66.83C136.54,107.8,133.54,110.8,129.84,110.8z"/>
	<path class="st1" d="M81.4,119.78l-1.92,0c-1.68,0-3.06-1.38-3.07-3.06l-0.01-7.58c0-1.68,1.38-3.06,3.06-3.07l1.92,0
		c1.68,0,3.06,1.38,3.07,3.06l0.01,7.58C84.46,118.4,83.09,119.78,81.4,119.78z"/>
	<g>
		<circle class="st2" cx="111.3" cy="105.05" r="31.99"/>
		<circle class="st3" cx="111.3" cy="105.05" r="24.2"/>
		<polyline class="st4" points="129.08,131.57 133.42,135.91 139.15,130.22 135.13,125.63 		"/>
		<polyline class="st5" points="157.85,144.88 141.98,128.25 130.73,138.98 146.98,156 		"/>
	</g>
	<g>
		<defs>
			<circle id="SVGID_1_" cx="111.45" cy="105.2" r="24.05"/>
		</defs>
		<clipPath id="SVGID_2_">
			<use xlink:href="#SVGID_1_"  style="overflow:visible;"/>
		</clipPath>
		<g class="st6">
			<path class="st7" d="M148.79,120.18c-1.42-0.02-2.85-0.03-4.27-0.02c-1.19,0-2.38,0-3.58,0.01c-0.81-0.15-1.63-0.29-2.44-0.43
				l-2.43-0.41l-1.57-1.06c-0.26-0.19-0.55-0.33-0.82-0.49l-0.83-0.48l-2.9-1.66l1.32-0.64l0.37-0.18l-0.31-0.28
				c-1.3-1.17-2.6-2.35-3.91-3.52l-0.13-0.12l-0.17,0.05l-1.37,0.43c-0.41-0.43-0.81-0.86-1.22-1.28c-0.95-1-1.91-1.98-2.87-2.96
				l-0.02-0.02l-0.02-0.01c-0.42-0.24-0.84-0.48-1.26-0.72c0.11-0.13,0.22-0.26,0.33-0.39l0.05-0.06l0.23-0.25l-0.02-0.01l0.01-0.01
				l-0.24-0.16l-0.03-0.02c-1.12-0.84-2.27-1.62-3.43-2.38l0.03-0.03l-0.1-0.08l0.11,0.01l0.15,0.01l0.11-0.12
				c0.83-0.93,1.64-1.88,2.46-2.82c0.82-0.95,1.63-1.89,2.43-2.85l1.21-1.43l1.19-1.44c0.79-0.97,1.58-1.94,2.35-2.92
				c-0.88,0.89-1.74,1.8-2.59,2.71l-1.28,1.37l-1.27,1.38c-0.84,0.92-1.68,1.85-2.51,2.78c-0.79,0.9-1.59,1.79-2.37,2.69l-0.97-0.07
				l-0.11-0.01l-1.88-2.36l-2.05-2.55l0.99-2.1l0,0l0,0l0.69-3.02l-0.78,2.99l-1.06,2.11L112,97.41l0.03,0.04l2.02,2.63l1.47,1.9
				c-0.68-0.45-1.34-0.9-2-1.37l-0.01-0.01l-0.01-0.01c-0.6-0.35-1.16-0.8-1.79-1.21c-0.31-0.2-0.65-0.39-1.01-0.54
				c-0.36-0.14-0.74-0.24-1.13-0.26c-1.85-0.27-3.71-0.51-5.58-0.68c-1.02-0.09-2.04-0.17-3.07-0.24l0.6-0.37l0.3-0.18
				c0.1-0.06,0.21-0.11,0.31-0.17l0.62-0.33l2.49-1.34c0.83-0.45,1.66-0.9,2.48-1.35c-0.86,0.4-1.71,0.8-2.56,1.21l-2.55,1.22
				l-0.64,0.31c-0.11,0.05-0.21,0.1-0.32,0.16l-0.31,0.17l-1.13,0.64c-0.61-0.04-1.22-0.07-1.83-0.1c-0.93-0.05-1.87-0.08-2.8-0.11
				c-0.47-0.02-0.93-0.02-1.4-0.03c-0.47-0.02-0.95,0.02-1.41,0.08c-1.87,0.23-3.67,0.77-5.54,0.84c0.93,0,1.87-0.09,2.79-0.24
				c0.92-0.14,1.85-0.3,2.77-0.37c0.92-0.1,1.84,0.02,2.78,0.05c0.93,0.05,1.86,0.11,2.79,0.18c0.39,0.03,0.79,0.06,1.18,0.09
				l-1.15,0.66c-0.61-0.08-1.21-0.15-1.82-0.2c-0.93-0.08-1.86-0.12-2.79-0.12c-0.93,0.01-1.87,0.06-2.79,0.17
				c-0.93,0.12-1.84,0.3-2.73,0.58c0.92-0.11,1.84-0.19,2.76-0.24c0.92-0.05,1.84-0.08,2.76-0.08c0.92-0.01,1.84,0.01,2.77,0.02
				c0.52,0.01,1.05,0.02,1.57,0.02l-0.47,0.27l-0.06,0.03l-0.03,0.06l-0.07,0.13c-0.05,0-0.1,0-0.16,0
				c-0.95-0.02-1.9,0.01-2.85,0.09c-0.95,0.07-1.89,0.17-2.83,0.33c-1.87,0.3-3.72,0.78-5.5,1.41c0.91-0.26,1.82-0.5,2.75-0.7
				c0.92-0.2,1.86-0.35,2.79-0.48c0.93-0.13,1.87-0.21,2.81-0.26c0.93-0.05,1.86-0.05,2.79-0.02l-0.48,0.86
				c-0.44,0.14-0.87,0.3-1.3,0.45l-0.01,0c-1.58-0.08-3.16-0.14-4.74-0.18l-1.19-0.03c-0.2,0-0.4-0.02-0.6,0
				c-0.2,0.01-0.4,0.04-0.59,0.09c-0.78,0.18-1.5,0.52-2.28,0.65c0.79-0.11,1.53-0.42,2.3-0.58c0.19-0.04,0.39-0.06,0.58-0.07
				c0.19-0.01,0.39,0.01,0.59,0.02l1.19,0.06c1.4,0.07,2.79,0.16,4.19,0.25c-0.1,0.03-0.19,0.07-0.29,0.1
				c-1.74,0.6-3.48,1.22-5.21,1.84c-0.4-0.61-0.79-1.22-1.2-1.82c0.34,0.63,0.7,1.25,1.05,1.87c-0.1,0.04-0.2,0.07-0.3,0.11
				l0.11,0.4c0.14-0.02,0.28-0.05,0.43-0.08c0.05,0.09,0.1,0.18,0.16,0.27l0,0l0.01,0.01c0.13,0.18,0.26,0.36,0.4,0.54
				c-1.09,0.42-2.17,0.85-3.25,1.28l0.1,0.36c1.28-0.23,2.56-0.47,3.83-0.7c0.24,0.32,0.47,0.64,0.71,0.96l1.11,1.79l0.42,0.67
				c-0.99,0.22-1.97,0.45-2.95,0.72c1.64-0.13,3.27-0.34,4.89-0.58c0.81-0.12,1.62-0.25,2.43-0.39c0.57-0.09,1.14-0.2,1.71-0.3
				l0.38,1.52c0.41,1.6,0.84,3.19,1.2,4.8l0.76,3.19l-0.27,0.33l-0.46-0.95l-0.65,0.18c-0.07-0.18-0.15-0.35-0.22-0.53l-0.01-0.02
				l-0.02-0.03c-0.57-0.79-1.16-1.57-1.75-2.36c-0.58-0.78-1.18-1.56-1.77-2.34l-0.53,0.34c0.53,1.03,1.08,2.04,1.62,3.06
				c0.37,0.69,0.75,1.39,1.13,2.08l-1.34,0.03l-0.29,0.26l-3.13-3.47c-1.5-1.66-2.99-3.33-4.5-4.98c-1.52-1.64-3.03-3.29-4.59-4.9
				c1.46,1.7,2.92,3.39,4.37,5.09l4.36,5.1c1.01,1.19,2.04,2.37,3.07,3.54l-0.86,0.79l0.34,0.67l-3.98-2.66
				c-1.79-1.21-3.57-2.44-5.33-3.69c-1.77-1.24-3.52-2.51-5.29-3.75c0.55,0.44,1.11,0.87,1.67,1.3c0.53,0.5,1.06,1,1.6,1.49
				c0.65,0.59,1.3,1.18,1.96,1.76c0.66,0.58,1.32,1.16,1.98,1.73c0.66,0.57,1.33,1.15,2,1.71l0.01,0.01l0.01,0.01l1.43,0.99
				l1.44,0.98c0.76,0.52,1.52,1.03,2.29,1.54l-2.05,0.48l0.13,0.23l-0.28-0.1l-1.06-0.38l-1.06-0.39l-1.06-0.39l-1.05-0.39
				l-2.11-0.79c-1.41-0.53-2.82-1.05-4.25-1.54c1.33,0.73,2.68,1.38,4.06,2c0.69,0.31,1.38,0.6,2.08,0.89
				c0.7,0.28,1.41,0.55,2.11,0.82c0.71,0.25,1.42,0.5,2.14,0.74c0.29,0.09,0.59,0.18,0.88,0.27l0.14,0.25l-0.37,0.39l-1.61-0.29
				c-0.77-0.13-1.55-0.28-2.32-0.44l-2.32-0.46c-1.55-0.31-3.11-0.6-4.68-0.8c1.52,0.46,3.04,0.89,4.57,1.29
				c0.76,0.21,1.54,0.38,2.31,0.57c0.77,0.17,1.55,0.33,2.33,0.47c0.4,0.07,0.8,0.14,1.2,0.2l-1.56,1.62l0.17,0.05
				c-1.84,0.14-3.68,0.29-5.52,0.35l-0.94,0.03l-0.94,0.02c-0.65,0.02-1.29,0.09-1.92,0.2c-0.63,0.11-1.25,0.25-1.86,0.38
				c-0.61,0.13-1.23,0.26-1.83,0.36c-1.22,0.13-2.48,0.14-3.73,0.08c-1.25-0.05-2.51-0.17-3.77-0.21c1.25,0.18,2.49,0.38,3.75,0.52
				c1.26,0.13,2.53,0.2,3.81,0.11c1.28-0.15,2.51-0.45,3.74-0.63c0.61-0.09,1.23-0.16,1.84-0.18l0.95-0.01l0.95-0.03
				c1.26-0.05,2.53-0.14,3.78-0.26c1.04-0.1,2.09-0.21,3.13-0.32l1.04,0.31l-0.09,0.28c-1.79,0.36-3.58,0.74-5.37,1.12l-6.24,1.37
				c-1.04,0.23-2.08,0.46-3.12,0.67l-1.56,0.33l-1.41,0.29c-0.16-0.08-0.33-0.14-0.5-0.2c-0.74-0.4-1.49-0.79-2.24-1.17
				c-0.91-0.47-1.83-0.93-2.74-1.41c0.86,0.57,1.73,1.11,2.62,1.63c0.36,0.21,0.71,0.42,1.07,0.64c-0.41-0.05-0.82-0.07-1.23-0.08
				c-0.32,0-0.64,0-0.95,0.01c-0.5-0.68-1.01-1.36-1.54-2.02l1.31,2.02c-0.62,0.01-1.25,0-1.87-0.07c0.49,0.13,1,0.21,1.51,0.26
				c0.17,0.02,0.34,0.03,0.51,0.04l0.63,0.97c0.7,1.07,1.44,2.13,2.26,3.12c0.3,0.37,0.63,0.73,0.96,1.08
				c-0.36,0.06-0.73,0.12-1.09,0.17c-1.17-0.86-2.34-1.71-3.46-2.63c0.49-0.23,0.98-0.46,1.47-0.69l0.27-0.13l-0.28-0.09
				c-0.53-0.17-1.05-0.38-1.56-0.61c-0.51-0.23-1.02-0.47-1.52-0.73c0.48,0.29,0.96,0.58,1.46,0.84c0.41,0.22,0.84,0.42,1.27,0.6
				c-0.5,0.2-1,0.39-1.5,0.6l-0.25,0.1l0.2,0.18c0.59,0.53,1.19,1.05,1.81,1.55c0.62,0.5,1.24,0.98,1.86,1.47l0.08,0.06l0.11-0.01
				c0.53-0.06,1.06-0.14,1.59-0.22l1.24,1.23c0.91,0.9,1.87,1.78,2.94,2.52l0.01,0.01l0,0c0.87,0.48,1.71,1.01,2.59,1.49
				c0.38,0.21,0.77,0.41,1.17,0.6c-0.03,0.03-0.06,0.07-0.09,0.1l-0.01,0.01l-0.01,0.01l-3.06,3.82l-0.2,0.25l0.25,0.19l0.63,0.47
				l-1.89,1.94c-0.8,0.83-1.6,1.67-2.4,2.52c-0.79,0.85-1.59,1.69-2.37,2.55c0.85-0.79,1.68-1.6,2.52-2.4
				c0.83-0.81,1.66-1.61,2.49-2.43l1.96-1.95l4.37,3.27l2.28,1.69l-0.3,1.19l0.33-1.16l3.02,2.25l0.07,0.05l0.09,0.01l7.94,0.55
				c0.37,0.03,0.75,0.05,1.12,0.08c-0.36,0.23-0.71,0.47-1.04,0.75c-0.5,0.29-1,0.58-1.49,0.88c-0.5,0.3-1,0.61-1.49,0.92
				l-1.49,0.92l-1.5,0.91c0.52-0.26,1.05-0.51,1.56-0.79l1.55-0.82l1.54-0.83c0.51-0.28,1.03-0.55,1.54-0.82l0.01-0.01l0.02-0.02
				c0.49-0.39,1.05-0.71,1.62-1.03c1.99,0.13,3.99,0.25,5.98,0.38l0.03,0l0.02,0l2.99-0.56c0.99-0.19,1.99-0.37,2.98-0.56l4.35-0.07
				c1.3-0.02,2.6-0.05,3.9-0.08c0.62,0.76,1.24,1.51,1.88,2.25c0.66,0.78,1.34,1.55,1.97,2.36c1.28,1.6,2.56,3.2,3.86,4.79
				c-1.16-1.69-2.33-3.38-3.51-5.06c-0.58-0.85-1.21-1.65-1.84-2.47c-0.63-0.81-1.25-1.63-1.86-2.45l-1.85-2.46l-1.86-2.45
				l-1.86-2.45l-1.88-2.44c-1.26-1.62-2.5-3.25-3.77-4.86l-3.79-4.85c-0.63-0.81-1.27-1.61-1.9-2.42l0.71-0.73l-0.16-0.37
				c1.23,0.91,2.45,1.82,3.69,2.71l2.72,1.98c0.89,0.68,1.76,1.38,2.64,2.07c1.76,1.39,3.53,2.76,5.31,4.12
				c-1.66-1.51-3.33-3.01-5.01-4.49c-0.84-0.74-1.67-1.49-2.53-2.22l-2.63-2.1c-1.62-1.3-3.25-2.58-4.88-3.86l2.81-0.76l-0.66-1.39
				l0.38-0.45c0.95,0.2,1.9,0.41,2.86,0.6c1.17,0.28,2.33,0.56,3.5,0.83c1.17,0.27,2.33,0.54,3.5,0.8c1.17,0.26,2.34,0.53,3.51,0.78
				c2.34,0.51,4.69,1,7.04,1.47l0.02,0l0.01,0l2.05,0.08c0.15,0.01,0.3,0.01,0.45,0.01c0,0.01,0,0.01,0,0.02l0.27,1.41l0.27-1.12
				c0,0.1,0,0.21-0.01,0.31c0.05-0.2,0.1-0.4,0.14-0.6c0.09,0,0.17,0.01,0.26,0.01c0,0.01,0,0.02,0,0.03
				c-0.02,0.19-0.04,0.38-0.02,0.58c0.09-0.11,0.16-0.23,0.23-0.35c0.01,0.02,0.01,0.04,0.01,0.06c0.07,0.25,0.15,0.5,0.27,0.75
				c0.08-0.27,0.09-0.53,0.09-0.79c0-0.09-0.01-0.17-0.02-0.26c0.04,0,0.07,0,0.11,0c-0.04,0-0.07-0.01-0.11-0.01
				c-0.01-0.15-0.03-0.29-0.05-0.44c0.1-0.2,0.19-0.4,0.28-0.61c0.15-0.35,0.3-0.7,0.44-1.05c0.08-0.2,0.16-0.4,0.23-0.6
				c0.14-0.11,0.27-0.22,0.4-0.34c-0.11,0.05-0.22,0.1-0.33,0.16c0.03-0.09,0.07-0.19,0.1-0.28c0.13-0.35,0.25-0.7,0.37-1.06
				c0.17-0.39,0.32-0.79,0.47-1.19c0.15-0.4,0.3-0.8,0.44-1.21l0.21-0.61l0.19-0.62c0.09-0.31,0.18-0.61,0.25-0.92l1.98-0.09
				l2.13-0.12c1.42-0.08,2.84-0.15,4.26-0.25c1.42-0.08,2.84-0.19,4.26-0.29c1.42-0.1,2.84-0.22,4.26-0.34
				C151.64,120.22,150.21,120.2,148.79,120.18z M133.48,118.09c0.09,0.05,0.18,0.1,0.27,0.14c-0.54-0.08-1.09-0.15-1.63-0.21
				l-1.64-0.19c-0.06-0.01-0.11-0.01-0.17-0.02l-0.6-0.97c-0.24-0.38-0.47-0.76-0.71-1.15l0.26,0.14l3.37,1.81L133.48,118.09z
				 M131.99,128.38c-0.01,0.01-0.03,0.01-0.04,0.02c0.02-0.02,0.03-0.03,0.04-0.05L131.99,128.38z M132.84,127.32l0.14-0.74
				c0.08,0.37,0.16,0.74,0.25,1.11c-0.08,0.04-0.17,0.09-0.25,0.13c-0.09,0.05-0.18,0.1-0.27,0.14
				C132.76,127.76,132.8,127.54,132.84,127.32z M132.6,126.72c0-0.13,0-0.27-0.01-0.4c-0.03-0.74-0.08-1.47-0.18-2.2
				c-0.03-0.26-0.08-0.52-0.12-0.77c0,0.01,0,0.01,0.01,0.02c0.17,0.83,0.34,1.66,0.52,2.49c0.03,0.15,0.07,0.29,0.1,0.44
				L132.6,126.72z M131.54,120.81c0.02,0.08,0.04,0.15,0.07,0.23c-1.4-0.22-2.8-0.44-4.21-0.65l-0.08-0.01l-0.08,0.01l-6.56,0.62
				c-2.18,0.23-4.37,0.44-6.55,0.69c-1.09,0.12-2.18,0.24-3.27,0.37l-2.27,0.28l-0.4-0.13l0.11-0.41l2.21-0.51l3.14-0.74
				c2.09-0.51,4.18-1.02,6.26-1.55c2.04-0.51,4.07-1.04,6.1-1.58c0.34,0.19,0.68,0.37,1.03,0.56l0.06,0.03l0.05,0
				c0.01,0,0.02,0,0.04,0l0.45,0.26l1.62,0.97l1.62,0.97c0.15,0.09,0.3,0.18,0.44,0.27C131.4,120.59,131.47,120.7,131.54,120.81z
				 M132.09,120.93c0.04,0.02,0.08,0.05,0.12,0.07c-0.03,0.01-0.06,0.01-0.09,0.02C132.11,120.99,132.1,120.96,132.09,120.93z
				 M111.93,146.53l-2,0.89l-3.98,1.37c-0.03-0.04-0.05-0.09-0.08-0.13c-0.11-0.17-0.22-0.33-0.35-0.48l-0.18-0.21l-0.17-0.2
				c-0.09-0.12-0.18-0.24-0.26-0.36l2.5-0.43l0,0l0,0l2.26-0.71l1.79-0.37C111.62,146.11,111.77,146.32,111.93,146.53z
				 M111.94,145.8l3.11-0.65l-2.74,1.22C112.18,146.18,112.06,145.99,111.94,145.8z M116.29,148.46c1.01,0.28,2.02,0.54,3.03,0.81
				l0.12,0.14l-4.64,0.68l-0.02,0l-0.01,0.01l-1.73,0.85l-3.81-0.53c-1.02-0.08-2.03-0.15-3.05-0.22c0.03-0.09,0.07-0.17,0.1-0.26
				l0.01-0.04l0-0.04c0.01-0.27-0.06-0.48-0.13-0.67c-0.04-0.1-0.08-0.19-0.13-0.27l3.95-1.37l0,0l0,0l2.03-0.91
				c0.19,0.26,0.37,0.51,0.56,0.77l0.04,0.05l0.05,0.01L116.29,148.46z M113.85,151.04l-4.68,0.85l-3.97,0.3
				c0.16-0.28,0.32-0.56,0.46-0.84c0.15-0.31,0.3-0.62,0.43-0.94c1.04,0.07,2.07,0.15,3.1,0.23l3.84,0.52l0.03,0l0.03-0.01
				l1.74-0.86l3.65-0.55L113.85,151.04z M102.38,152.41l-4.12-1.51l-1.03-0.38c-0.17-0.06-0.35-0.13-0.51-0.19
				c-0.16-0.07-0.32-0.16-0.48-0.25c-0.47-0.26-0.92-0.53-1.38-0.81l-0.04-0.5c0.13,0.09,0.26,0.17,0.39,0.26l0.42,0.28l0.04-0.29
				l1.9,0.99l0.02,0.01l0.02,0l3.57,0.16c0.31,0.11,0.63,0.21,0.95,0.26c-0.17-0.08-0.34-0.16-0.5-0.24l3.72,0.16
				c0.04,0,0.08,0.01,0.11,0.01c-0.26,0.65-0.59,1.28-0.94,1.89L102.38,152.41z M94.4,153.08l0.5,0.15l-1.7-0.13l1.21-3.62
				c0.03,0.01,0.06,0.02,0.1,0.02c0.07,0.01,0.14,0,0.24-0.04c0-0.05,0-0.1-0.01-0.13c0.03,0.02,0.05,0.03,0.08,0.05l0.27,3.15
				l-0.69,0.54l-0.01,0.01L94.4,153.08z M94.26,149.38c0.02,0.02,0.04,0.04,0.07,0.06c0.01,0,0.01,0.01,0.02,0.01l-0.69,2.04
				L94.26,149.38z M94.61,149.12c-0.01-0.01-0.03-0.03-0.04-0.04c-0.01-0.01-0.02-0.01-0.03-0.02l0.13-0.4
				c0.03,0.02,0.06,0.04,0.08,0.06l0.04,0.51C94.74,149.2,94.67,149.16,94.61,149.12z M90.48,145.22c-0.35-0.32-0.7-0.64-1.05-0.96
				l-0.67-0.6l0.6,0.05l0.12,0.01l0.04-0.11l0.39-1.18c0.19,0.06,0.37,0.12,0.56,0.18l0.76,0.24c-0.05,0.11-0.09,0.22-0.14,0.33
				c0.06-0.11,0.13-0.21,0.19-0.32l0.83,0.26c0.27,0.09,0.56,0.16,0.82,0.26l0.81,0.29c0.53,0.2,1.07,0.39,1.58,0.62
				c0.07,0.03,0.14,0.07,0.21,0.1c-0.03,0-0.06,0.01-0.08,0.01l-0.39,0.08l0.28,0.28c0.09,0.09,0.19,0.19,0.28,0.29
				c-0.01,0.09-0.03,0.18-0.04,0.28c-0.02,0.16-0.05,0.31-0.07,0.47c-0.07-0.04-0.13-0.08-0.2-0.12l0.19,0.18
				c-0.12,0.8-0.24,1.59-0.35,2.39c-0.7-0.46-1.41-0.93-2.12-1.39l-1.27-0.82L90.48,145.22z M86.79,143.18l-0.47-0.32
				c0.21-0.22,0.42-0.44,0.63-0.66c0.34,0.37,0.69,0.74,1.04,1.11l-1.12-0.07L86.79,143.18z M88.35,143.28
				c-0.44-0.39-0.88-0.78-1.32-1.17c0.17-0.18,0.34-0.36,0.52-0.55c0.43,0.16,0.85,0.32,1.28,0.47c0.26,0.09,0.51,0.18,0.77,0.27
				l-0.34,1.08l-0.85-0.06L88.35,143.28z M103.32,113.63c-0.06-0.5-0.11-1-0.17-1.49c-0.07-0.5-0.12-1-0.19-1.49
				c-0.13-0.94-0.28-1.88-0.45-2.82c0.18-0.02,0.35-0.04,0.53-0.06c0.55-0.07,1.09-0.13,1.64-0.22c0.53-0.07,1.06-0.16,1.59-0.25
				c-0.54,1.51-1.02,3.04-1.48,4.57l-0.37,1.27l-0.09,0.32l-0.08,0.32l-0.15,0.64c-0.1,0.43-0.21,0.85-0.3,1.28l-0.15,0.67
				c-0.01,0.03-0.01,0.1-0.02,0.15c0.01,0.07,0,0.17,0.13,0.3c0.04,0.04,0.1,0.07,0.15,0.08c-0.12,0.34-0.23,0.69-0.35,1.03
				l-0.33,0.26l-0.4-0.57l0.15-1.2c0.11-0.9,0.23-1.81,0.34-2.71l0-0.04L103.32,113.63z M99.7,107.49l-0.01,0l-0.02,0
				c-0.05,0.01-0.09,0.02-0.14,0.02l-0.46-1.77c0.41-0.01,0.83-0.01,1.24-0.02l1.19,0.2l1.21,0.2c0.81,0.13,1.61,0.26,2.42,0.37
				c-0.79-0.19-1.59-0.37-2.39-0.55l-1.2-0.26l-1.2-0.26l-0.01,0l-0.02,0c-0.45-0.01-0.89-0.01-1.34-0.02l-0.16-0.61l-0.01-0.05
				l-0.03-0.04l-0.57-0.89c0.36-0.03,0.73-0.05,1.09-0.06c0.84-0.03,1.68-0.03,2.52-0.01c1.58,0.03,3.15,0.11,4.73,0.13
				c-0.12,0.8-0.24,1.6-0.37,2.39l-0.02,0.11l-0.01,0.04l0,0.02l0,0.01l0,0l0,0.02c-0.01,0.03-0.01,0.06-0.01,0.09
				c0,0.06,0.01,0.09,0.03,0.13c0.01,0.03,0.02,0.05,0.04,0.07c0.02,0.03,0.05,0.05,0.06,0.07c0.03,0.03,0.06,0.05,0.08,0.06
				c0.02,0.01,0.03,0.01,0.04,0.02c-0.05,0.13-0.09,0.25-0.14,0.38c-0.54-0.01-1.08-0.01-1.62,0c-0.55,0-1.1,0.02-1.65,0.04
				c-0.55,0.02-1.1,0.04-1.65,0.07C100.8,107.43,100.25,107.45,99.7,107.49z M97.52,100.29l0.33-0.62c0.76,0.03,1.53,0.09,2.29,0.18
				l0.7,0.07c0.23,0.03,0.46,0.07,0.69,0.11c0.46,0.09,0.91,0.21,1.35,0.35c0.89,0.29,1.75,0.67,2.6,1.07
				c0.67,0.31,1.33,0.63,2.01,0.94c0.01,0.06,0.02,0.11,0.02,0.17c-0.09-0.05-0.18-0.11-0.27-0.16l-0.4-0.24l-0.03,0.17
				c-0.57-0.29-1.15-0.62-1.79-0.82l-0.02-0.01l-0.02,0l-2.65-0.16c0.48-0.03,0.96-0.06,1.44-0.07c-0.86-0.05-1.72-0.04-2.58,0
				l-0.95-0.06l-3.11-0.17l0.27-0.51c0.05-0.02,0.1-0.04,0.15-0.06c0.94-0.32,1.92-0.53,2.92-0.52
				C99.48,99.87,98.48,100.03,97.52,100.29z M108,98.93c0.33,0.05,0.65,0.1,0.98,0.15c-0.37,1.01-0.73,2.03-1.1,3.05
				c-0.07-0.03-0.14-0.06-0.21-0.1c-0.08-0.43-0.17-0.86-0.23-1.29c-0.06-0.38-0.09-0.76-0.09-1.14l0-0.14l0-0.07
				c0-0.03,0-0.05,0-0.06c0.01-0.06,0.08-0.12,0.16-0.17C107.66,99.06,107.83,98.99,108,98.93z M112,105.88
				c0.08,0.06,0.15,0.12,0.23,0.19l-0.3,1l-0.61,0.78c0.03-0.06,0.05-0.12,0.08-0.18c-0.06,0.09-0.12,0.17-0.17,0.26
				c-0.49-0.14-0.99-0.29-1.48-0.42c-0.58-0.18-1.17-0.38-1.74-0.58c-0.29-0.1-0.58-0.2-0.85-0.32c-0.13-0.05-0.26-0.11-0.37-0.17
				l0.01-0.06c0.11-0.62,0.21-1.22,0.3-1.83c0.07-0.46,0.14-0.91,0.21-1.37c0.09,0.06,0.19,0.11,0.28,0.17l0.03,0.28l0.08-0.21
				c0.58,0.34,1.17,0.69,1.75,1.02l1.28,0.74L112,105.88z M113.59,102.57l1.88,0.13c0.29,0.19,0.57,0.38,0.86,0.56
				c-0.94,1.12-1.88,2.24-2.81,3.37c-0.28-0.26-0.57-0.52-0.85-0.78L113.59,102.57z M119.22,107.76l1.36,1.63l1.37,1.62
				c0.35,0.42,0.71,0.83,1.07,1.24l-0.56,0.18l-4.66,1.48l-0.02,0.01l-0.02,0.01l-4.07,2.07l-4.06,2.09
				c-0.34,0.18-0.69,0.36-1.03,0.54c0.4-0.27,0.81-0.54,1.22-0.82c0.73-0.5,1.46-1.04,2.06-1.71c0.6-0.67,1.09-1.43,1.56-2.17
				c0.46-0.74,0.93-1.47,1.5-2.11c1.02-0.92,2.02-1.86,3-2.82c0.42-0.42,0.84-0.85,1.25-1.28L119.22,107.76z M126.89,113.5
				c0.76,1.23,1.54,2.44,2.31,3.67l0.36,0.57c-0.77-0.08-1.53-0.16-2.3-0.23c-0.24-0.14-0.48-0.29-0.72-0.43l0.45-0.55l0.18-0.21
				l-0.21-0.19c-0.48-0.43-0.96-0.85-1.44-1.27l-0.83-1.3l-0.64-0.98l1.52-0.48C126.02,112.57,126.45,113.04,126.89,113.5z
				 M124.16,113.91l0.86,1.32l0.02,0.04l0.03,0.03c0.43,0.37,0.85,0.73,1.28,1.09l-0.44,0.57c-2.05,0.47-4.1,0.95-6.14,1.44
				c-2.09,0.5-4.18,1.03-6.26,1.55l-3.12,0.81l-1.94,0.52l0.44-1.55l-2.14,0.59l0.17-0.22c0.12-0.15,0.25-0.29,0.38-0.44
				c0.83-0.4,1.67-0.8,2.5-1.19l4.11-1.99l4.08-2l4.64-1.45l0.79-0.25L124.16,113.91z M102.77,132.76l0.01,0.02l0.02,0.03
				c0.57,0.89,1.15,1.76,1.72,2.64l1.75,2.62l0.01-0.01l1.55,3.52c-0.09,0.01-0.17,0.03-0.26,0.04c-0.81,0.15-1.62,0.3-2.43,0.46
				c-0.61,0.12-1.22,0.25-1.83,0.38c-0.06-0.29-0.13-0.59-0.19-0.88c-0.32-1.47-0.6-2.95-0.9-4.43c-0.29-1.48-0.59-2.96-0.92-4.43
				c-0.07-0.3-0.14-0.59-0.21-0.89l0.37-0.51l0.45,1.07l0.66-0.21C102.63,132.39,102.7,132.58,102.77,132.76z M103.53,146.14
				l0.01,0.02l0.01,0.02c0.15,0.35,0.31,0.69,0.5,1.02c0.05,0.09,0.11,0.17,0.16,0.26l-0.27,0.05l-3.39-0.05l-0.36-0.13
				c-0.92-0.35-1.84-0.72-2.75-1.12c-0.34-0.2-0.64-0.5-0.93-0.81c-0.1-0.1-0.19-0.21-0.29-0.32l0.05-0.3
				c0.09,0.01,0.18,0.03,0.27,0.05c0.35,0.08,0.72,0.17,1.07,0.25c0.71,0.17,1.39,0.42,2.08,0.68c0.68,0.27,1.36,0.56,2.03,0.86
				c0.68,0.29,1.35,0.6,2.04,0.86l-1.95-1.05c-0.65-0.34-1.31-0.68-1.99-0.98c-0.68-0.3-1.38-0.56-2.1-0.76
				c-0.37-0.09-0.71-0.18-1.08-0.27c-0.1-0.02-0.19-0.04-0.3-0.05c0-0.02,0-0.05,0-0.07c0-0.02-0.01-0.04-0.01-0.05
				c-0.01-0.02-0.01-0.02-0.01-0.03c-0.02-0.03-0.03-0.06-0.05-0.08c-0.02-0.03-0.03-0.03-0.04-0.04c-0.05-0.04-0.09-0.07-0.12-0.09
				c0.05-0.15,0.1-0.31,0.15-0.46c0.12,0,0.24,0,0.36,0c0.64,0.25,1.27,0.51,1.91,0.76c0.42,0.17,0.84,0.34,1.27,0.5
				c-0.8-0.13-1.6-0.26-2.4-0.37c0.79,0.22,1.58,0.42,2.37,0.62c0.79,0.21,1.59,0.39,2.38,0.59l0.02,0l0.03,0c0.02,0,0.05,0,0.07,0
				c0.39,0.11,0.78,0.21,1.17,0.29c0.03,0.01,0.06,0.01,0.09,0.02C103.5,146.01,103.51,146.08,103.53,146.14z M104.68,148.16
				c0.06,0.08,0.12,0.15,0.18,0.22l0.18,0.21c0.11,0.13,0.21,0.27,0.3,0.41c0,0,0,0,0,0l-0.38,0.13l-6.12-0.8
				c-0.06-0.05-0.13-0.1-0.19-0.16c-0.3-0.24-0.59-0.48-0.88-0.72l2.04,0.04c0.09,0.03,0.19,0.06,0.28,0.09
				c0.48,0.15,0.96,0.29,1.44,0.42c0.48,0.13,0.96,0.27,1.45,0.38l-2.33-0.88l3.29,0.07h0l0,0l0.3-0.05
				C104.38,147.74,104.52,147.96,104.68,148.16z M105.58,149.43c0.05,0.13,0.09,0.27,0.09,0.36c-0.04,0.12-0.09,0.25-0.14,0.37
				c-0.06,0-0.12-0.01-0.18-0.01l-4.13-0.17c-0.31-0.18-0.62-0.36-0.92-0.56c-0.41-0.28-0.81-0.58-1.2-0.89l5.87,0.76l0.02,0
				l0.02-0.01l0.42-0.15C105.49,149.23,105.54,149.33,105.58,149.43z M97.63,149.83l-1.94-1.01l0-0.02l0.02-0.12l0.14-0.07
				l2.47-0.19c0.03,0.02,0.05,0.04,0.08,0.07c0.55,0.44,1.12,0.86,1.75,1.2c0.17,0.09,0.34,0.18,0.51,0.26L97.63,149.83z
				 M95.73,144.33c0-0.01,0.01-0.04,0.01-0.03l0,0.01L95.73,144.33C95.73,144.33,95.73,144.33,95.73,144.33
				C95.73,144.34,95.73,144.34,95.73,144.33z M95.96,138.24l-0.23,0.74c-0.08,0.24-0.14,0.49-0.22,0.74
				c-0.07,0.25-0.16,0.49-0.23,0.73c-0.15,0.49-0.3,0.98-0.44,1.47c-0.13,0.47-0.26,0.95-0.37,1.43c-0.19-0.07-0.39-0.13-0.58-0.19
				l-0.83-0.25c-0.29-0.09-0.56-0.15-0.84-0.22l-0.75-0.18c0.22-0.37,0.44-0.74,0.65-1.12c0.34-0.6,0.68-1.2,1.01-1.8
				c0.33-0.6,0.66-1.21,0.98-1.82c0.32-0.61,0.64-1.21,0.95-1.83l0.01-0.02l0.01-0.02l0.44-1.32l0.42-1.33l0.2-0.67
				c0.03-0.09,0.05-0.17,0.07-0.26l1.67-1.91l0.07-0.08l-0.01,2.1l0.23-0.2c-0.1,0.3-0.21,0.59-0.3,0.89l-0.36,1.1l0.7-0.63
				l-0.06,0.28c-0.11,0.48-0.2,0.97-0.3,1.46c-0.19,0.98-0.42,1.94-0.64,2.9c-0.37,1.7-0.73,3.4-1.04,5.12
				c-0.03-0.01-0.06-0.01-0.09-0.02c0.03,0.01,0.06,0.02,0.08,0.03c-0.04,0.21-0.07,0.41-0.11,0.62c-0.04-0.02-0.08-0.04-0.11-0.06
				c-0.14-0.07-0.28-0.13-0.42-0.19c-0.35-0.14-0.7-0.27-1.05-0.39c0.19-0.46,0.35-0.92,0.52-1.39c0.17-0.48,0.33-0.97,0.49-1.46
				c0.07-0.25,0.15-0.49,0.22-0.74c0.06-0.25,0.12-0.5,0.18-0.75l0.17-0.75c0.05-0.25,0.1-0.5,0.15-0.76
				C96.12,137.75,96.04,138,95.96,138.24z M93.15,135.54l0.35,0.34l-2.92,3.36l-0.03,0.03l-0.01,0.04l-0.86,2.75
				c-0.26-0.07-0.53-0.14-0.79-0.21c-0.43-0.11-0.87-0.22-1.31-0.32c0.72-0.76,1.45-1.52,2.16-2.28c0.59-0.64,1.19-1.27,1.77-1.92
				C92.06,136.74,92.61,136.14,93.15,135.54z M90.87,139.46L93.9,136l0.12-0.14l-0.13-0.13l-0.35-0.35l1.67-1.91l-0.3,0.9l-0.42,1.3
				c-0.3,0.61-0.6,1.22-0.89,1.83c-0.3,0.62-0.59,1.24-0.88,1.87c-0.29,0.62-0.57,1.25-0.85,1.88c-0.18,0.4-0.35,0.81-0.52,1.21
				l-0.81-0.2c-0.19-0.04-0.38-0.09-0.56-0.14L90.87,139.46z M91.6,133.22l1.81-1.68l-0.01,0.31l-0.94,0.75l-0.6,0.48
				c-0.1,0.07-0.2,0.14-0.3,0.22L91.6,133.22z M100.99,132.79l0.74,4.46c0.24,1.49,0.51,2.98,0.79,4.46
				c0.06,0.3,0.12,0.59,0.18,0.89l-1.61,0.19c-0.36,0.04-0.72,0.09-1.08,0.14c0.01-1.09-0.01-2.17-0.05-3.25
				c-0.01-0.57-0.04-1.13-0.07-1.69c-0.02-0.55-0.06-1.11-0.08-1.66c0.15-1.01,0.28-2.02,0.41-3.03l0.06-0.59l0.08,0.13l0.51-0.71
				C100.92,132.34,100.96,132.57,100.99,132.79z M96.26,143.41c0.06,0.03,0.13,0.05,0.19,0.08c-0.08,0.01-0.16,0.03-0.23,0.04
				C96.24,143.49,96.25,143.45,96.26,143.41z M96.27,143.38c0.53-1.66,1.01-3.34,1.47-5.02l0.38-1.44c0.14-0.48,0.22-0.96,0.33-1.44
				c0.1-0.48,0.21-0.96,0.31-1.45l0.15-0.73c0.01-0.05,0.02-0.07,0.02-0.13l0-0.08c0-0.03-0.01-0.09-0.02-0.13
				c0-0.01,0-0.02-0.01-0.03c-0.01-0.02-0.02-0.04-0.03-0.05c-0.02-0.03-0.05-0.07-0.07-0.09c-0.03-0.03-0.07-0.05-0.11-0.07
				c-0.01-0.01-0.03-0.01-0.04-0.01c0.12-0.4,0.25-0.8,0.37-1.2l0.34-0.29l0.39,0.64l-0.17,1.37c-0.12,1.02-0.25,2.04-0.36,3.06
				l0,0.04l0,0.02c0.05,0.56,0.1,1.13,0.16,1.69c0.06,0.56,0.11,1.12,0.18,1.69c0.12,1.08,0.26,2.15,0.42,3.22
				c-0.18,0.02-0.36,0.05-0.54,0.07c-0.55,0.08-1.09,0.16-1.64,0.25c-0.39,0.06-0.78,0.13-1.17,0.2
				C96.52,143.43,96.4,143.4,96.27,143.38z M97.56,129.49l0.25-0.48l0.16-0.11l0,0.79l-0.39,0.45l-0.84,0.97l0.2-0.39L97.56,129.49z
				 M96.21,145.69c0.3,0.32,0.63,0.64,1.05,0.87l0.01,0.01l0.01,0c0.8,0.33,1.62,0.62,2.44,0.89l-1.96-0.03
				c-0.24-0.2-0.47-0.39-0.72-0.58c-0.31-0.25-0.64-0.48-0.97-0.71l0.07-0.52C96.16,145.65,96.18,145.67,96.21,145.69z M96.82,147.1
				c0.11,0.11,0.23,0.21,0.35,0.32l-1.28-0.02l0.15-1.04L96.82,147.1z M95.81,148.44l-0.02,0l-0.02,0.01l-0.04,0.02l0.15-1.07
				l1.29,0.03c0.31,0.29,0.63,0.57,0.95,0.84L95.81,148.44z M102.16,145.2c0,0-0.01,0-0.01,0c-0.37-0.12-0.74-0.25-1.12-0.38
				c-0.81-0.28-1.62-0.57-2.44-0.83c-0.53-0.17-1.06-0.32-1.6-0.45c0.28,0,0.57-0.01,0.85-0.02c0.55-0.01,1.1-0.05,1.66-0.07
				c0.55-0.03,1.1-0.06,1.65-0.1l1.65-0.13l0.01,0l0.02,0c0.14,0.65,0.29,1.31,0.45,1.96C102.91,145.17,102.54,145.19,102.16,145.2z
				 M103.44,143.09c0.61-0.12,1.22-0.24,1.82-0.38c0.81-0.17,1.61-0.35,2.42-0.54c0.12-0.03,0.24-0.06,0.36-0.09l1.23,2.79
				c-0.48,0.04-0.96,0.08-1.44,0.12c-0.63,0.07-1.26,0.07-1.89,0.09c-0.67,0.02-1.34,0.04-2.01,0.06
				C103.75,144.46,103.59,143.77,103.44,143.09z M104.7,116.51l0.37-1.02l-0.7,0.55l0.04-0.17c0.1-0.43,0.19-0.86,0.29-1.3
				c0.18-0.87,0.4-1.72,0.62-2.57c0.4-1.68,0.79-3.37,1.1-5.08c0.03,0.01,0.05,0.03,0.08,0.04c0.16,0.08,0.31,0.13,0.46,0.19
				c0.3,0.11,0.59,0.21,0.89,0.3c0.05,0.01,0.09,0.03,0.14,0.04c-0.25,0.37-0.45,0.75-0.64,1.14c-0.19,0.42-0.37,0.84-0.52,1.28
				c-0.07,0.22-0.15,0.43-0.21,0.65c-0.05,0.22-0.1,0.45-0.14,0.68c-0.08,0.45-0.14,0.91-0.14,1.39c0.26-0.4,0.45-0.82,0.62-1.24
				c0.09-0.21,0.16-0.43,0.24-0.64c0.08-0.21,0.16-0.43,0.24-0.64c0.15-0.43,0.28-0.87,0.38-1.31c0.09-0.42,0.17-0.84,0.2-1.29
				c0.53,0.17,1.06,0.31,1.61,0.46c0.45,0.11,0.91,0.21,1.37,0.31l-2.13,2.73l-0.1,0.13l0.11,0.12l0.14,0.16
				c-0.2,0.32-0.39,0.65-0.58,0.98c-0.25,0.42-0.49,0.84-0.73,1.26l-2.68,3.45l0.06-0.83l-0.27,1.09l-0.18,0.23l0-0.49l-0.22,0.17
				C104.51,117.02,104.6,116.76,104.7,116.51z M106.75,106.63L106.75,106.63l0-0.02c0,0,0,0,0,0
				C106.74,106.64,106.74,106.63,106.75,106.63z M106.69,106.38C106.69,106.38,106.69,106.37,106.69,106.38
				C106.69,106.38,106.69,106.38,106.69,106.38z M111.44,108.37l0.55,0.12c-0.26,0.32-0.51,0.63-0.76,0.95
				c-0.55,0.68-1.08,1.37-1.62,2.06l-0.05-0.05c0.07-0.14,0.15-0.28,0.22-0.43c0.28-0.54,0.55-1.08,0.82-1.63l0.8-1.03
				C111.41,108.36,111.43,108.36,111.44,108.37z M113.63,107.2c0.25,0.2,0.5,0.4,0.75,0.6c0.4,0.32,0.81,0.63,1.21,0.95
				c0.32,0.25,0.66,0.49,0.99,0.73l-0.09,0.07c-1.06-0.34-2.12-0.68-3.19-1.01c-0.23-0.07-0.47-0.14-0.7-0.22
				c0.24-0.27,0.48-0.53,0.73-0.79C113.43,107.42,113.53,107.31,113.63,107.2z M116.13,104.4c0.58,0.58,1.16,1.15,1.75,1.72
				l0.92,1.13c-0.42,0.46-0.84,0.9-1.27,1.34c-0.25,0.26-0.51,0.51-0.77,0.76l-0.15,0.12l-0.36-0.3l-0.3-0.24
				c-0.1-0.08-0.19-0.18-0.28-0.26c-0.37-0.36-0.74-0.71-1.12-1.06c-0.23-0.22-0.46-0.43-0.7-0.65
				C114.62,106.1,115.37,105.25,116.13,104.4z M114.57,111.44l-0.01,0.01l-0.01,0.01c-0.58,0.69-1.05,1.46-1.5,2.22
				c-0.45,0.76-0.91,1.5-1.47,2.15c-0.56,0.65-1.24,1.19-1.96,1.7c-0.54,0.38-1.09,0.76-1.62,1.18l1.28-1.66l0.06-1.4l0.93-0.83
				l0.6-0.54c0.2-0.18,0.42-0.34,0.63-0.51l1.26-1.02l2.52-2.04l0.5-0.41C115.37,110.68,114.97,111.06,114.57,111.44z
				 M105.16,117.61l0.73-0.95c-0.29,0.72-0.57,1.43-0.85,2.15l-0.39,0.31l0-0.36l0.2-0.74L105.16,117.61z M109.65,111.77l0.1-0.13
				l-0.11-0.12l-0.01-0.01c0.61-0.63,1.21-1.27,1.8-1.91c0.32-0.34,0.64-0.69,0.95-1.03c0.29,0.06,0.57,0.14,0.86,0.21
				c1.07,0.27,2.15,0.53,3.23,0.79l-1.3,1.01l-2.56,1.99l-1.28,1c-0.21,0.17-0.43,0.33-0.63,0.5l-0.61,0.53l-2.79,2.44l-0.32,0.25
				l0.04-0.11l0.21-0.59l0.42-1.17l0.41-1.15c0.27-0.48,0.53-0.96,0.79-1.45L109.65,111.77z M107.04,115.21l-0.41,1.18l-0.2,0.6
				c-0.03,0.1-0.07,0.2-0.1,0.31c-0.01,0.06-0.03,0.09-0.05,0.2l-0.01,0.03c0,0,0-0.01,0-0.01c0-0.01,0-0.01,0-0.02
				c0,0-0.02,0.03-0.02,0.05c-0.08,0.17-0.18,0.34-0.27,0.52l-0.72,0.56c0.23-0.68,0.45-1.36,0.68-2.04l1.13-1.47L107.04,115.21z
				 M119.92,105.9l-0.06,0.07l-0.03,0.04l-0.02,0.02l-0.01,0.02l-0.01,0.01c0,0,0,0,0,0.01c-0.26-0.14-0.51-0.29-0.77-0.43
				c-0.87-0.49-1.74-0.97-2.62-1.44c0.83,0.56,1.66,1.11,2.49,1.66c0.24,0.16,0.48,0.32,0.73,0.47c-0.18,0.21-0.37,0.42-0.55,0.63
				l-0.96-1.03l-0.01-0.01l0,0c-0.64-0.52-1.28-1.04-1.93-1.54c0.23-0.26,0.46-0.51,0.68-0.77c1.08,0.71,2.16,1.42,3.2,2.18
				L119.92,105.9z M113.28,106.91c-0.09,0.11-0.18,0.22-0.28,0.33c-0.26,0.32-0.52,0.64-0.78,0.96c-0.19-0.06-0.38-0.11-0.58-0.17
				l0.6-0.78l0.02-0.03l0.01-0.03l0.25-0.89C112.78,106.51,113.03,106.71,113.28,106.91z M99.06,101.44
				c-0.72,0.08-1.44,0.19-2.16,0.3l-0.08-0.12l0.17-0.33L99.06,101.44z M100.06,101.57c0.1-0.01,0.19-0.02,0.29-0.04
				c1.53,0.11,3.05,0.23,4.58,0.33c0.57,0.19,1.11,0.49,1.67,0.78c-0.26,0.08-0.53,0.13-0.8,0.16c-0.42,0.05-0.85,0.05-1.27,0.03
				c-0.85-0.04-1.72-0.18-2.58-0.28l-2.59-0.33l-1.3-0.16c-0.1-0.02-0.22-0.02-0.34-0.03c-0.12,0-0.23,0-0.35,0.01
				c-0.09,0.01-0.17,0.02-0.26,0.03l-0.01-0.01C98.08,101.86,99.06,101.7,100.06,101.57z M97.43,103.67
				c-0.22,0.03-0.43,0.06-0.65,0.09c-1.67,0.28-3.29,0.77-4.94,1.05c-0.33,0.06-0.66,0.11-1,0.17c-0.09-0.12-0.19-0.23-0.28-0.35
				c0.42-0.16,0.85-0.32,1.27-0.47c0.82-0.29,1.64-0.57,2.47-0.81c0.84-0.25,1.62-0.61,2.43-0.8L97.43,103.67z M97.35,102.46
				c0.21-0.02,0.43-0.02,0.65,0.02l1.3,0.16l2.59,0.31c0.86,0.1,1.72,0.23,2.61,0.27c0.44,0.02,0.89,0.02,1.33-0.03
				c0.29-0.03,0.58-0.09,0.87-0.18c-0.04,0.29-0.09,0.57-0.13,0.86c-1.58-0.07-3.15-0.19-4.73-0.26c-0.84-0.04-1.69-0.06-2.53-0.05
				c-0.41,0-0.82,0.02-1.23,0.05L97.35,102.46z M93.44,130.63l-0.02,0.49l-2.09,1.85l-0.02,0.01L91.31,133l-0.62,0.91l-0.7,0.5
				l-2.49,1.78l-3.81,2.74c-0.76-0.78-1.49-1.57-2.22-2.37l-1.53-1.69c0.74-0.18,1.48-0.37,2.21-0.59c1.11-0.33,2.21-0.69,3.29-1.11
				c1.08-0.41,2.15-0.84,3.2-1.32c1.05-0.47,2.1-0.96,3.13-1.48c0.52-0.26,1.03-0.52,1.54-0.78c0.51-0.26,1.04-0.48,1.56-0.72
				l0.18-0.08L93.44,130.63z M87.59,136.33l2.53-1.73l0.19-0.13l-2.63,3.87c-0.74,0.78-1.47,1.56-2.2,2.34
				c-0.46-0.43-0.92-0.87-1.36-1.31c-0.13-0.13-0.26-0.27-0.4-0.41L87.59,136.33z M88.05,138.66l0.02-0.02l0.01-0.01l3.1-4.76
				l0.21-0.14c0.21-0.15,0.42-0.29,0.63-0.44l0.61-0.47l2.97-2.29l1.38-0.95l-0.52,0.88l-0.34,0.61c-0.11,0.21-0.22,0.4-0.33,0.64
				l-0.25,0.78l-2.4,2.77l-0.12,0.14l0.13,0.12c-0.58,0.56-1.16,1.12-1.74,1.68c-0.63,0.6-1.24,1.22-1.86,1.83
				c-0.93,0.92-1.85,1.85-2.77,2.78c-0.3-0.26-0.6-0.52-0.89-0.78C86.6,140.25,87.33,139.46,88.05,138.66z M86.75,141.85
				C86.75,141.85,86.74,141.85,86.75,141.85c-0.02-0.01-0.03-0.02-0.05-0.03C86.72,141.83,86.73,141.84,86.75,141.85z
				 M109.65,146.16L109.65,146.16L109.65,146.16l-2.26,0.72l-2.53,0.46c-0.26-0.4-0.48-0.82-0.68-1.27
				c0.59,0.09,1.19,0.13,1.78,0.11c-0.64-0.11-1.26-0.24-1.88-0.4c-0.01-0.04-0.02-0.08-0.03-0.12c0.63,0.01,1.27,0.01,1.9,0.01
				l0.95,0l0.24,0l0.24-0.02l0.48-0.03c0.63-0.05,1.27-0.09,1.9-0.15l0.44-0.04l-0.18-0.4l-1.38-3.09c0.05-0.01,0.09-0.02,0.14-0.03
				l0.57,0.87l0.77,1.18c0.26,0.39,0.51,0.79,0.79,1.17c0.16,0.22,0.32,0.45,0.48,0.67L109.65,146.16z M108.45,141.48l-0.14-0.31
				l0.2,0.3C108.49,141.47,108.47,141.48,108.45,141.48z M103.23,132.55c-0.07-0.17-0.14-0.33-0.21-0.5l0.25-0.08l0.24-0.01
				c0.39,0.88,0.77,1.75,1.16,2.63c0.02,0.04,0.04,0.08,0.05,0.12C104.23,133.99,103.74,133.26,103.23,132.55z M129.42,119
				c-0.46-0.33-0.94-0.64-1.41-0.95c0.6,0.03,1.2,0.06,1.8,0.08l0.56,0.88c0.26,0.41,0.52,0.81,0.79,1.21
				C130.58,119.81,130,119.41,129.42,119z M127.15,111.6c1.16,1.03,2.34,2.06,3.51,3.08l-1.38,0.7l-0.36,0.18
				c-0.5-0.81-1-1.62-1.52-2.42l-0.02-0.03l-0.02-0.02c-0.38-0.4-0.76-0.8-1.14-1.21L127.15,111.6z M124.12,110.5
				c0.33,0.37,0.67,0.73,1,1.09l-1.45,0.45c-0.42-0.48-0.84-0.96-1.27-1.43l-1.42-1.58l-1.43-1.56l-0.07-0.08
				c0.13-0.14,0.25-0.28,0.38-0.42l0.34-0.28c0.39,0.25,0.79,0.51,1.18,0.76C122.28,108.47,123.19,109.49,124.12,110.5z
				 M120.19,106.7l-0.28,0.22c0.08-0.08,0.15-0.17,0.23-0.25C120.15,106.67,120.17,106.68,120.19,106.7z M111.37,99.89
				c0.58,0.38,1.15,0.84,1.79,1.22c0.6,0.44,1.22,0.86,1.83,1.27l-1.5-0.12l-0.12-0.01l-0.04,0.12l-0.96,3.22
				c-0.03-0.03-0.06-0.05-0.09-0.08l-0.01-0.01l-0.02-0.01l-1.25-0.78l-1.26-0.77c-0.6-0.38-1.21-0.74-1.82-1.11
				c0.02-0.06,0.05-0.13,0.07-0.19c0.02,0.01,0.03,0.02,0.05,0.02l0.2,0.09l0.07-0.21l1.05-3.38c0.03,0.01,0.06,0.01,0.1,0.01
				l0.01,0l0.01,0C110.16,99.21,110.78,99.5,111.37,99.89z M99.05,98.79c0.09,0,0.19,0,0.28,0c-0.07-0.01-0.15-0.02-0.22-0.03
				l1.16-0.7c1.22,0.1,2.44,0.22,3.66,0.36c1.24,0.14,2.48,0.3,3.72,0.47c0.01,0.01,0.02,0.02,0.04,0.03
				c-0.09,0.04-0.17,0.08-0.25,0.13c-0.08,0.06-0.18,0.12-0.23,0.25c-0.01,0.04-0.01,0.06-0.01,0.09l-0.01,0.07l-0.01,0.15
				c-0.02,0.39,0,0.78,0.05,1.17c0.05,0.38,0.11,0.76,0.17,1.14c-1.44-0.68-2.86-1.42-4.41-1.91c-0.46-0.14-0.92-0.26-1.4-0.35
				c-0.24-0.04-0.48-0.08-0.71-0.11l-0.71-0.07c-0.66-0.07-1.32-0.12-1.99-0.15L99.05,98.79z M96.64,100.81l-0.11,0.2L96.17,101
				C96.33,100.93,96.49,100.87,96.64,100.81z M94.75,101.55c0.3-0.11,0.6-0.23,0.9-0.35l0.75,0.05l-0.14,0.25l-0.08,0.14l0.09,0.14
				l0.03,0.05c-1.21,0.21-2.42,0.45-3.63,0.69c-0.38,0.08-0.76,0.15-1.14,0.23C92.61,102.36,93.68,101.96,94.75,101.55z
				 M89.85,103.74c-0.04-0.06-0.08-0.13-0.13-0.19c1.01-0.19,2.02-0.4,3.03-0.61c1.21-0.25,2.43-0.52,3.64-0.76
				c0.03-0.01,0.07-0.01,0.1-0.02l0.01,0.02c-0.81,0.21-1.56,0.55-2.32,0.78c-0.84,0.25-1.67,0.53-2.49,0.83
				c-0.47,0.17-0.93,0.34-1.39,0.52C90.16,104.12,90.01,103.93,89.85,103.74z M88.7,105.35c0.54-0.21,1.08-0.42,1.62-0.62
				c0.07,0.1,0.15,0.2,0.23,0.31C89.93,105.14,89.32,105.25,88.7,105.35z M91.75,106.11L91.75,106.11
				c-0.22-0.28-0.44-0.55-0.66-0.83c0.27-0.05,0.54-0.1,0.82-0.15c1.67-0.31,3.28-0.83,4.92-1.12c0.25-0.04,0.5-0.08,0.74-0.12
				l0.68,1.1l0.1,0.4c-0.7-0.01-1.4-0.01-2.1-0.02c-0.34,0-0.68-0.01-1.02,0l-1.02,0.06l-2.04,0.13l-0.25,0.02l0.06,0.24
				c0.09,0.36,0.18,0.72,0.28,1.08L91.75,106.11L91.75,106.11z M97.25,107.91c-0.81,0.14-1.61,0.3-2.41,0.46
				c-0.57,0.12-1.15,0.24-1.72,0.37l-0.19-0.8c-0.16-0.66-0.32-1.32-0.48-1.97l1.78-0.11l1.01-0.07c0.34-0.01,0.68-0.01,1.02-0.01
				c0.73-0.01,1.45-0.02,2.18-0.03l0.47,1.86C98.36,107.71,97.81,107.8,97.25,107.91z M101.25,114.39
				c-0.35-1.61-0.78-3.21-1.18-4.81l-0.38-1.47c0.03,0,0.05-0.01,0.08-0.01c0.54-0.05,1.08-0.11,1.62-0.16
				c0.36-0.04,0.73-0.08,1.09-0.12c0,0.95,0.03,1.91,0.07,2.86c0.02,0.5,0.05,1,0.08,1.5c0.03,0.49,0.07,0.97,0.1,1.46
				c-0.14,0.89-0.26,1.79-0.38,2.68l-0.06,0.52l-0.08-0.11l-0.35,0.43L101.25,114.39z M97.9,115.14c0.49,0.62,0.97,1.23,1.46,1.85
				c0.07,0.14,0.13,0.28,0.2,0.42l-0.25,0.07l-0.23,0.01C98.69,116.69,98.3,115.92,97.9,115.14z M93.76,118.99l-1.43-0.99
				l-1.43-0.97c-0.67-0.56-1.35-1.11-2.02-1.66c-0.13-0.1-0.25-0.2-0.38-0.31c1.05,0.77,2.1,1.53,3.16,2.28
				c0.88,0.63,1.76,1.25,2.65,1.87l2.13,1.46l0.09,0.17l-0.11,0.02C95.54,120.24,94.66,119.6,93.76,118.99z M79.77,130.06
				c1.05-0.2,2.1-0.4,3.14-0.61l3.13-0.67l3.12-0.71l5.07-1.2l-0.43,1.38l2.13-0.5l-0.33,0.38c-0.3,0.12-0.6,0.24-0.91,0.36
				c-0.53,0.22-1.07,0.42-1.6,0.67c-0.52,0.25-1.04,0.5-1.56,0.74c-1.04,0.49-2.08,0.96-3.14,1.41c-2.1,0.91-4.25,1.71-6.43,2.38
				c-0.83,0.26-1.66,0.47-2.5,0.68l-0.6-0.66c-0.82-0.89-1.65-1.76-2.52-2.61l0.45-0.52l0,0C77.79,130.4,78.78,130.24,79.77,130.06z
				 M75.82,133.63c-0.82-0.97-1.59-1.99-2.34-3.03c-0.19-0.26-0.39-0.53-0.58-0.79c0.25,0.02,0.5,0.04,0.74,0.06
				c0.88,0.08,1.76,0.23,2.53,0.59l-0.42,0.45l-0.18,0.19l0.19,0.2c0.89,0.93,1.76,1.87,2.63,2.82l0.37,0.4
				c-0.04,0.01-0.08,0.02-0.11,0.03c-0.56,0.13-1.12,0.24-1.69,0.34C76.58,134.48,76.2,134.06,75.82,133.63z M78.48,136.38
				c-0.34-0.34-0.68-0.68-1.02-1.01c0.44-0.07,0.88-0.15,1.32-0.24c0.15-0.03,0.3-0.07,0.45-0.1l0.48,0.52
				c0.44,0.48,0.88,0.95,1.33,1.41c0.74,0.77,1.5,1.52,2.29,2.23l-0.72,0.52c-0.42-0.27-0.85-0.54-1.28-0.81
				C80.3,138.16,79.38,137.29,78.48,136.38z M83.83,140.51c-0.41-0.26-0.82-0.52-1.23-0.79l0.74-0.5c0.16,0.15,0.33,0.3,0.49,0.44
				c0.48,0.42,0.97,0.82,1.47,1.2c-0.11,0.12-0.22,0.23-0.33,0.35C84.59,140.98,84.21,140.74,83.83,140.51z M82.4,145.37l2.82-3.59
				c0.07-0.07,0.14-0.15,0.21-0.23c0.34,0.15,0.68,0.28,1.02,0.4c-0.32-0.15-0.64-0.31-0.95-0.47c0.09-0.1,0.18-0.2,0.27-0.3
				c0.22,0.16,0.45,0.32,0.68,0.47c0.08,0.09,0.17,0.18,0.25,0.27c-0.27,0.28-0.55,0.55-0.83,0.83l-0.17,0.17l0.2,0.14l0.04,0.02
				l-0.37-0.03l-0.1-0.01l-0.07,0.07l-2.44,2.48l-0.1,0.11L82.4,145.37z M87.48,149.14l-4.3-3.2l0.06-0.06l2.38-2.4l1.04,0.07
				l0.03,0l1.98,2.19l2.06,2.26l-0.97,1.85l0,0l0,0l-0.21,0.82L87.48,149.14z M89.59,150.72l0.24-0.83l1.04-1.86l0.02-0.04
				l-0.03-0.04l-2.04-2.35l-1.77-2.02l0.37,0.03l-0.11-0.08l0.97,0.08l0.88,0.92c0.34,0.35,0.67,0.7,1.01,1.04l0.01,0.01l0.02,0.02
				l1.24,0.87l1.25,0.86c0.64,0.44,1.28,0.88,1.93,1.31l-0.14,0.4c0,0-0.01,0-0.01,0c-0.05-0.03-0.09-0.06-0.14-0.08l-0.06-0.04
				l-0.02,0.07l-0.01,0.04c-0.03,0.01-0.06,0.01-0.09,0.03c0,0.08,0.01,0.13,0.03,0.18l-1.1,3.85l-0.36-0.03L89.59,150.72z
				 M100.57,153.67l-5.62-0.44l-0.53-0.17l0.68-0.52l0,0l0-0.01l-0.25-3.12c0.43,0.26,0.87,0.52,1.31,0.77
				c0.16,0.09,0.32,0.18,0.49,0.26c0.18,0.07,0.35,0.13,0.52,0.2l1.03,0.38l4.13,1.53l0.01,0.01l0.02,0l2.03-0.15
				c-0.52,0.51-1.14,0.92-1.78,1.31c-0.06,0.04-0.12,0.07-0.17,0.1C101.82,153.77,101.2,153.72,100.57,153.67z M122.66,153.37
				c0.02,0.03,0.05,0.06,0.07,0.09c-1.3-0.02-2.59-0.05-3.89-0.06l-4.37-0.06l-0.01,0l-0.01,0c-1,0.16-2,0.33-3.01,0.49l-2.98,0.49
				c-1.72-0.14-3.44-0.29-5.16-0.43c0.55-0.33,1.09-0.7,1.56-1.16l0.02-0.02l0.02-0.03c0.07-0.11,0.13-0.22,0.19-0.33l4.08-0.3l0,0
				l0,0l4.69-0.84l0,0l0,0l5.7-1.58l1.11,1.37L122.66,153.37z M118.77,148.61l0.51,0.63c-0.98-0.32-1.96-0.63-2.94-0.94l-3.53-1.11
				c-0.15-0.23-0.29-0.47-0.44-0.7l3.25-1.46l0.19-0.09l1.02,1.28L118.77,148.61z M111.06,139.02c1.27,1.61,2.56,3.2,3.84,4.8
				l0.85,1.05l-0.17,0.04l-3.71,0.78c-0.18-0.28-0.36-0.56-0.54-0.84l-1.51-2.37l-0.46-0.72c1.04-0.26,2.09-0.54,3.12-0.86
				c-1.13,0.12-2.25,0.29-3.37,0.47l-2.31-3.6l0.01-0.01c-0.52-1.15-1.06-2.29-1.58-3.44c-0.38-0.8-0.75-1.59-1.13-2.39l1.33-0.05
				c0.6,0.77,1.2,1.54,1.81,2.3L111.06,139.02z M131.21,129.9l-2.02-0.22c-2.32-0.6-4.65-1.18-6.98-1.73
				c-1.17-0.28-2.33-0.55-3.5-0.82c-1.17-0.27-2.34-0.54-3.51-0.8c-1.17-0.27-2.34-0.52-3.51-0.77c-0.87-0.16-1.74-0.31-2.61-0.47
				l1.73-2.03l-0.39-0.13l0.53-0.03c1.1-0.06,2.19-0.14,3.29-0.21c2.19-0.14,4.38-0.32,6.57-0.48l6.49-0.54
				c1.5,0.22,3,0.45,4.5,0.66l0.12,0.02l0.08-0.02c0.01,0.02,0.01,0.05,0.02,0.07c0.02,0.59,0.05,1.17,0.07,1.76
				c0.03,0.73,0.07,1.46,0.09,2.18c0.01,0.31,0.02,0.63,0.02,0.94c-0.17,0.23-0.34,0.46-0.51,0.7c-0.21,0.29-0.41,0.59-0.61,0.89
				c-0.44,0.25-0.88,0.49-1.31,0.77c0.51-0.14,1-0.31,1.49-0.49l0.03-0.01l0.04-0.04c0.04-0.04,0.07-0.08,0.11-0.12
				c0.06,0.33,0.11,0.65,0.17,0.98C131.48,129.93,131.34,129.91,131.21,129.9z M132.33,130.03c0.06-0.29,0.1-0.59,0.14-0.88
				c0.03-0.14,0.06-0.28,0.09-0.43l0.03-0.16c0.19-0.14,0.39-0.29,0.58-0.43c0.04-0.03,0.09-0.07,0.13-0.1
				c0,0.01,0.01,0.03,0.01,0.04c-0.08,0.3-0.15,0.61-0.22,0.92c-0.02,0.1-0.04,0.2-0.06,0.29l-0.1-0.68l-0.25,0.99
				c-0.04,0.16-0.07,0.31-0.09,0.48C132.5,130.05,132.41,130.04,132.33,130.03z M135.61,122.16l-0.29,0.58l-0.28,0.58
				c-0.18,0.39-0.36,0.78-0.53,1.17c-0.17,0.4-0.34,0.79-0.5,1.19l-0.01,0.01l0,0.01c-0.12,0.36-0.23,0.72-0.33,1.08
				c-0.08,0.27-0.15,0.53-0.23,0.8c-0.05,0.03-0.1,0.05-0.15,0.08c-0.07-0.53-0.14-1.05-0.21-1.58l0-0.01l0,0.01
				c-0.01-0.09-0.02-0.18-0.04-0.27c-0.12-0.84-0.24-1.69-0.37-2.53l0,0l0-0.01c-0.08-0.35-0.17-0.7-0.26-1.05
				c1.21-0.28,2.42-0.57,3.63-0.85C135.9,121.63,135.75,121.9,135.61,122.16z M140.24,120.17l-2.14,0.02l-2.14,0.04l-0.05,0
				l-0.06,0.01c-1.21,0.25-2.41,0.5-3.62,0.75c-0.06-0.04-0.12-0.08-0.17-0.12c-0.02-0.08-0.04-0.16-0.06-0.23l-0.01-0.03
				l-0.02-0.04c-0.37-0.62-0.75-1.24-1.13-1.86l-0.33-0.54l1.58,0.05c0.55,0.01,1.1,0.02,1.65,0.03c0.19,0.1,0.39,0.2,0.57,0.32
				l1.62,1l0.03,0.02l0.03,0l2.48,0.3c0.82,0.1,1.64,0.19,2.46,0.29C140.7,120.17,140.47,120.17,140.24,120.17z"/>
		</g>
		<g class="st8">
			<path class="st9" d="M87.31,88.52c0.71,0.65,1.42,1.31,2.13,1.95c0.71,0.65,1.43,1.29,2.15,1.92l1.08,0.96l1.09,0.95l0.03,0.03
				l0.05,0.02c0.72,0.36,1.44,0.72,2.16,1.07c0,0.44,0.01,0.88,0.02,1.32l0.03,1.41c0.01,0.47,0.03,0.94,0.06,1.41
				c0.01,0.23,0.02,0.47,0.04,0.7l0.03,0.35l0.02,0.18l0.01,0.09l0.01,0.05l0,0.01c0,0.01,0.01,0.02,0.01,0.03
				c0.01,0.02,0.02,0.04,0.04,0.06l0.02,0.02l0.04,0.02c0.69,0.32,1.38,0.64,2.07,0.95c0.69,0.31,1.38,0.63,2.07,0.93
				c1.38,0.62,2.77,1.23,4.16,1.83l2.09,0.9l2.1,0.88c0.7,0.29,1.4,0.58,2.1,0.86c0.02,0.01,0.03,0.01,0.05,0.02l-0.18,0.06
				l0.16,0.12c-0.11,0.04-0.22,0.09-0.33,0.13l-1.07,0.42l-0.27,0.11c-0.04,0.02-0.09,0.04-0.13,0.05l-0.14,0.05
				c-0.18,0.06-0.36,0.12-0.54,0.19l-1.09,0.39l-0.54,0.21c-0.18,0.07-0.35,0.14-0.55,0.23l-0.26,0.16l-0.24,0.15l-0.49,0.29
				l-1,0.58l-0.98,0.58c-0.52,0.22-1.03,0.45-1.54,0.68c-0.52,0.23-1.03,0.46-1.55,0.7c-0.51,0.24-1.03,0.47-1.54,0.72
				c-0.51,0.24-1.02,0.49-1.52,0.75c0.54-0.18,1.07-0.38,1.6-0.58c0.53-0.2,1.06-0.4,1.58-0.61c0.53-0.21,1.05-0.41,1.58-0.63
				c0.52-0.21,1.05-0.42,1.57-0.64l0.01,0l0.01-0.01c0.67-0.38,1.33-0.76,1.99-1.16l0.49-0.3c0.08-0.05,0.17-0.1,0.25-0.15
				l0.12-0.08c0.02-0.01,0.05-0.04,0.08-0.06c0.02-0.02,0.01-0.01,0.02-0.01c0,0,0,0,0.01,0c0.15-0.08,0.33-0.15,0.51-0.23
				l0.53-0.22l1.06-0.44l0.53-0.22l0.13-0.06c0.05-0.02,0.09-0.04,0.14-0.06l0.26-0.13c0.47-0.23,0.93-0.46,1.39-0.71l0.06,0.04
				l-4.02,2.65l-0.88,0.77l4.93-3.4l0.02,0.01l-0.45,0.41l0.13,0.04c-0.04,0.04-0.09,0.09-0.13,0.13c-0.2,0.21-0.39,0.42-0.59,0.63
				l-0.29,0.32l-0.07,0.08l-0.02,0.03c-0.01,0-0.02,0.01-0.03,0.01l-0.19,0.1l-1.5,0.83c-0.5,0.28-1,0.56-1.49,0.84l-0.78,0.45
				l0.7-0.04l-0.27,0.19c-0.34,0.24-0.68,0.48-1.02,0.72c-0.67,0.49-1.36,0.95-2.04,1.42c-1.36,0.94-2.72,1.9-4.04,2.9
				c1.44-0.82,2.85-1.7,4.25-2.59c0.7-0.45,1.4-0.89,2.07-1.37c0.34-0.24,0.68-0.47,1.02-0.71l0.51-0.36l0.07-0.05l0.04-0.03
				l0.04-0.04c0.01-0.01,0.03-0.03,0.05-0.05c0.02-0.03,0.03-0.04,0.06-0.1c0.01-0.03,0.02-0.05,0.01-0.09
				c0-0.04-0.02-0.09-0.03-0.12c0,0,0,0,0,0c0.35-0.21,0.7-0.42,1.06-0.63c0.49-0.29,0.97-0.6,1.46-0.9l0.18-0.12
				c0.02-0.01,0.04-0.03,0.06-0.05c0.02-0.02,0.04-0.04,0.05-0.05l0.07-0.08l0.27-0.33l0.53-0.67l0.16-0.2l0.13,0.04l-0.3,0.21
				l0.06,0.15c-0.2,0.21-0.39,0.42-0.59,0.63c-0.21,0.22-0.43,0.45-0.64,0.68c-0.21,0.23-0.41,0.47-0.63,0.67
				c-0.44,0.42-0.92,0.8-1.41,1.18c-0.49,0.38-0.99,0.74-1.48,1.14c-0.48,0.4-0.97,0.81-1.38,1.3c-0.8,0.94-1.69,1.84-2.35,2.91
				c0.8-0.96,1.74-1.76,2.6-2.67c0.42-0.44,0.89-0.83,1.38-1.2c0.49-0.37,0.99-0.74,1.49-1.11c0.49-0.38,0.99-0.78,1.44-1.23
				c0.23-0.23,0.42-0.48,0.63-0.71c0.2-0.23,0.41-0.47,0.61-0.71c0.14-0.16,0.28-0.33,0.42-0.5l0.02,0.36l0.19,0.11l-0.2,0.32
				l-0.4,0.65c-0.26,0.43-0.53,0.87-0.77,1.32c-0.24,0.45-0.49,0.9-0.7,1.37l0,0.01l0,0c-0.15,0.41-0.3,0.82-0.43,1.24
				c-0.13,0.42-0.25,0.84-0.36,1.26c-0.11,0.42-0.2,0.85-0.28,1.28c-0.08,0.43-0.16,0.86-0.21,1.29c0.14-0.41,0.27-0.83,0.41-1.24
				l0.4-1.24c0.14-0.41,0.28-0.82,0.42-1.23c0.15-0.4,0.29-0.81,0.45-1.21c0.22-0.45,0.44-0.9,0.67-1.34l0.71-1.34l0.35-0.68
				l0.17-0.34l0.05,0.03l0.6-0.44l0.24,0.68l0.39-0.3l0.84,0.38l0.22-0.75l0.45-0.03c0.04,0.1,0.07,0.21,0.11,0.31
				c0.13,0.34,0.27,0.68,0.42,1.02c0.15,0.33,0.31,0.66,0.48,0.99c0.17,0.33,0.35,0.65,0.57,0.96c-0.05-0.38-0.14-0.74-0.25-1.09
				c-0.11-0.35-0.24-0.7-0.39-1.04c-0.15-0.34-0.32-0.67-0.51-0.99c-0.08-0.13-0.16-0.26-0.25-0.39l-0.1-0.28l0.37,0.14
				c0.21,0.34,0.42,0.68,0.64,1.01c0.3,0.44,0.61,0.87,0.93,1.29c0.32,0.42,0.65,0.83,1.02,1.23c-0.21-0.49-0.47-0.96-0.73-1.42
				c-0.27-0.46-0.55-0.9-0.85-1.34c-0.13-0.19-0.26-0.38-0.39-0.56l0.4-0.11l-0.92-0.77c0.06-0.07,0.12-0.13,0.19-0.2l0.07-0.02
				c0.24,0.23,0.48,0.45,0.72,0.67c0.31,0.27,0.63,0.53,0.95,0.79c0.33,0.25,0.66,0.5,0.99,0.74l1.01,0.71
				c0.34,0.23,0.68,0.46,1.02,0.69c0.68,0.45,1.37,0.9,2.06,1.35c-0.58-0.59-1.21-1.12-1.86-1.63c-0.32-0.26-0.65-0.5-0.98-0.75
				l-0.99-0.73l-1-0.72l-0.99-0.72c-0.22-0.16-0.43-0.33-0.65-0.49l0.45-0.14l-0.22-0.13c0.04-0.03,0.07-0.06,0.11-0.09
				c0.12-0.11,0.24-0.22,0.35-0.33c0.22-0.22,0.44-0.44,0.66-0.66l2.02-0.13l4.92-0.34l0.62-0.04c0.21-0.02,0.41-0.01,0.62-0.02
				l1.23-0.02l2.47-0.04l4.93-0.1l-4.94-0.02l-2.47,0l-1.23,0c-0.21,0-0.41-0.01-0.62,0.01l-0.62,0.03l-4.93,0.27l-1.75,0.1
				c0.12-0.13,0.24-0.25,0.36-0.38l2.2-0.52l5.7-1.38l0.09-0.02l0.01-0.09l0.01-0.04c0.68-0.11,1.37-0.22,2.05-0.33
				c0.73-0.12,1.46-0.25,2.19-0.37c1.46-0.26,2.92-0.52,4.37-0.79l0.12-0.02l0-0.12l0-0.21l0.24,0.28l0.05,0.06l0.08-0.01l2.9-0.53
				l2.9-0.55c0.97-0.19,1.93-0.38,2.89-0.57c0.96-0.2,1.93-0.39,2.89-0.6c-0.97,0.14-1.94,0.3-2.92,0.45
				c-0.97,0.16-1.94,0.32-2.91,0.48l-2.91,0.51l-2.82,0.51l-0.44-0.5l0.53-2.39l0.54-2.47l1.76-0.79l0,0l0,0l2.15-1.47l-2.18,1.41
				l-1.8,0.76l-0.02,0.01l-0.01,0.03l-0.59,2.49l-0.53,2.25l-0.12-0.13l0,0.07l-0.97-1.12l-0.06-0.07l-0.08,0.05l-3.52,2.14
				l-3.88,0.92l-0.09,0.02l-0.02,0.09l-0.08,0.45l-5.62,1.34l-1.78,0.43l0.04-0.04l0.08-0.09l0.03-0.03
				c0.01-0.01,0.02-0.01,0.03-0.02l0.21-0.12l1.66-0.98c0.55-0.33,1.11-0.65,1.66-0.99l0.85-0.52l-0.75,0.09l0.34-0.25
				c0.38-0.27,0.76-0.55,1.13-0.82c0.75-0.56,1.52-1.08,2.28-1.62c1.52-1.08,3.03-2.17,4.51-3.32c-1.6,0.96-3.17,1.98-4.73,3.01
				c-0.78,0.52-1.56,1.03-2.31,1.58c-0.38,0.27-0.76,0.54-1.13,0.81l-0.56,0.41c-0.04,0.03-0.1,0.07-0.16,0.12
				c-0.03,0.02-0.06,0.05-0.1,0.1c-0.02,0.02-0.05,0.07-0.06,0.14c0,0.05,0,0.09,0.03,0.14c0,0.01,0.01,0.01,0.01,0.02
				c-0.4,0.25-0.81,0.51-1.21,0.76c-0.55,0.34-1.08,0.69-1.63,1.04l-0.2,0.14c-0.02,0.02-0.05,0.03-0.07,0.05
				c-0.02,0.02-0.04,0.04-0.05,0.06l-0.08,0.09l-0.28,0.34l-0.09,0.02l0.26-0.29c0.33-0.36,0.65-0.73,0.98-1.08
				c0.16-0.17,0.34-0.32,0.52-0.48l0.56-0.47l1.13-0.93l2.26-1.86l0.01-0.01l0.01-0.01c0.36-0.4,0.72-0.8,1.08-1.2
				c0.36-0.4,0.72-0.8,1.07-1.21c0.71-0.81,1.41-1.63,2.09-2.46c-0.78,0.74-1.54,1.5-2.3,2.27c-0.38,0.38-0.75,0.77-1.13,1.15
				c-0.37,0.38-0.74,0.77-1.1,1.15c-0.77,0.6-1.52,1.21-2.28,1.83l-1.13,0.94c-0.19,0.16-0.37,0.32-0.56,0.48
				c-0.18,0.16-0.38,0.33-0.54,0.53c-0.2,0.22-0.39,0.44-0.57,0.67c0.68-0.88,1.37-1.75,2.08-2.61l2.68-3.29
				c0.89-1.1,1.78-2.2,2.65-3.32c0.87-1.12,1.72-2.25,2.54-3.41l0.01-0.01l0.01-0.01c0.31-0.57,0.6-1.17,0.77-1.81
				c0.02-0.08,0.04-0.16,0.06-0.24l0.06-0.23c0.04-0.15,0.09-0.29,0.14-0.43c0.06-0.14,0.12-0.28,0.19-0.41
				c0.07-0.12,0.15-0.24,0.24-0.32c0.38-0.23,0.77-0.44,1.17-0.63c0.4-0.2,0.81-0.38,1.23-0.55c0.6-0.11,1.21-0.11,1.83-0.07
				c0.62,0.04,1.27,0.1,1.91,0.03c0.89,0.08,1.79,0.13,2.68,0.18l1.35,0.08c0.45,0.03,0.9,0.06,1.35,0.1
				c-0.45-0.06-0.89-0.13-1.34-0.18l-1.34-0.15c-0.89-0.1-1.79-0.19-2.68-0.3l-0.01,0l-0.02,0c-0.62,0.05-1.24-0.03-1.88-0.09
				c-0.63-0.06-1.29-0.08-1.94,0.03l-0.02,0l-0.02,0.01c-0.43,0.16-0.86,0.35-1.28,0.54c-0.42,0.2-0.83,0.41-1.24,0.64l-0.02,0.01
				l-0.01,0.01c-0.15,0.13-0.25,0.28-0.34,0.43c-0.09,0.15-0.16,0.3-0.22,0.46c-0.06,0.16-0.12,0.32-0.16,0.48l-0.06,0.24
				c-0.02,0.08-0.04,0.15-0.06,0.23c-0.17,0.59-0.43,1.16-0.74,1.71c-0.81,1.15-1.65,2.28-2.51,3.4c-0.85,1.13-1.73,2.24-2.59,3.36
				c-0.87,1.12-1.73,2.24-2.58,3.37c-0.78,1.06-1.55,2.12-2.29,3.21c-0.17,0.2-0.34,0.41-0.5,0.62l-0.83,0.2
				c0.07-0.11,0.13-0.21,0.2-0.32l0.9-1.44l0.89-1.45l0.88-1.45l0.01-0.01l0.01-0.02l0.94-2.54l0.93-2.54l-0.4-0.18
				c-0.53,0.99-1.04,2-1.56,2.99l-1.53,3.01c-0.26,0.5-0.48,1.02-0.71,1.53l-0.68,1.55l-0.29,0.69l-0.36-0.16l-0.67,0.46l-0.28-0.67
				l-0.44,0.31l-0.95-0.35l-0.25,0.76l-0.08,0.01c-0.26-0.46-0.52-0.91-0.78-1.36c-0.31-0.54-0.63-1.08-0.95-1.61
				c-0.32-0.54-0.65-1.06-0.95-1.6c-0.31-0.54-0.62-1.08-0.93-1.62c-0.31-0.54-0.62-1.09-0.94-1.62c-0.63-1.08-1.28-2.14-1.97-3.19
				c0.52,1.14,1.09,2.25,1.67,3.36c0.58,1.11,1.16,2.21,1.78,3.3c0.64,1.09,1.32,2.13,2,3.18c0.26,0.4,0.53,0.8,0.8,1.2l-0.44,0.04
				l0.21,0.49l-1.07-0.33l-0.11,0.03c-0.37-0.29-0.73-0.57-1.1-0.86l-1.78-1.37l-1.79-1.35c-1.19-0.9-2.4-1.78-3.6-2.67l-3.57-2.59
				c-0.58-0.83-1.17-1.66-1.76-2.49l-0.07-0.09l-0.01-0.01c0.2-0.17,0.39-0.36,0.57-0.54c0.23-0.23,0.46-0.48,0.68-0.72
				c0.22-0.25,0.44-0.49,0.65-0.75c0.21-0.26,0.41-0.52,0.6-0.8c-0.27,0.19-0.53,0.41-0.77,0.64c-0.24,0.23-0.47,0.47-0.7,0.71
				c-0.22,0.25-0.44,0.5-0.64,0.77c-0.16,0.21-0.32,0.43-0.46,0.66l-0.02-0.01c-0.87-0.42-1.75-0.82-2.63-1.22l-1.07-0.88
				l-1.12-0.91c-0.75-0.61-1.5-1.21-2.25-1.8c-0.75-0.6-1.51-1.19-2.27-1.78c-0.76-0.59-1.53-1.17-2.29-1.76
				C85.9,87.21,86.61,87.86,87.31,88.52z M129.18,102.47l0.02-0.01l3.44-2.15l1.08,1.21l0,0.03l0.01,0.49
				c-1.41,0.28-2.83,0.56-4.24,0.85c-0.72,0.15-1.45,0.3-2.17,0.46c-0.68,0.15-1.35,0.29-2.03,0.44l0.06-0.39l3.81-0.92
				L129.18,102.47z M115.36,106.93l0.34-0.22l-0.06-0.13l0.28-0.02c-0.11,0.14-0.23,0.29-0.34,0.43L115.36,106.93z M114.7,108.14
				l-0.08-0.07l0.17-0.05C114.76,108.06,114.73,108.1,114.7,108.14z M115.91,107.1l-0.32,0.36c-0.03,0.04-0.07,0.07-0.1,0.11
				l-0.12-0.07c0.06-0.06,0.11-0.13,0.17-0.19l0.3-0.25l-0.06-0.02c0.15-0.17,0.31-0.34,0.46-0.51l0.14-0.01L115.91,107.1z
				 M116.87,105.95l-0.25,0.3l-0.12,0.01l0.25-0.28L116.87,105.95z M116.17,106.24c-0.01,0.01-0.02,0.03-0.03,0.04l-0.59,0.04
				l0-0.05l0.75-0.18C116.25,106.14,116.21,106.19,116.17,106.24z M115.82,105.16l0.74-1.51c0.25-0.51,0.48-1.01,0.76-1.5l1.59-2.97
				c0.05-0.09,0.1-0.19,0.15-0.28l-0.77,2.21l-0.82,1.47l-0.83,1.49l-0.81,1.49c-0.07,0.14-0.15,0.27-0.22,0.41l-0.1,0.02
				l-0.01-0.15l-0.02-0.01L115.82,105.16z M98.1,98.08l0.04,0.06l0.06,0.04l3.66,2.59c1.23,0.85,2.45,1.72,3.69,2.55l1.85,1.26
				l1.86,1.25c0.35,0.23,0.71,0.46,1.06,0.69l1.11,0.78l-0.23,0.07c-0.07-0.03-0.14-0.07-0.21-0.1c-0.68-0.33-1.37-0.65-2.05-0.97
				l-2.06-0.95l-2.07-0.94c-1.38-0.62-2.77-1.24-4.16-1.84c-0.69-0.31-1.39-0.6-2.09-0.9c-0.67-0.29-1.35-0.58-2.02-0.86l-0.01-0.07
				l-0.02-0.17l-0.04-0.35l-0.07-0.7l-0.13-1.4l-0.13-1.4c-0.04-0.44-0.08-0.87-0.12-1.31c0.12,0.06,0.25,0.12,0.37,0.18
				C96.95,96.43,97.53,97.25,98.1,98.08z"/>
			<path class="st9" d="M100.87,112.21c-0.8,0.15-1.59,0.33-2.39,0.49c-0.8,0.16-1.59,0.34-2.38,0.52l-2.38,0.54l-2.37,0.56
				l-0.16,0.04l-0.01,0.16l0,0.1l-0.14-0.17l-0.09-0.1l-0.13,0.03c-1.05,0.24-2.1,0.5-3.15,0.75l-3.14,0.78l-1.57,0.4l-1.57,0.41
				l-1.56,0.42c-0.52,0.14-1.04,0.28-1.56,0.43c0.53-0.1,1.06-0.2,1.59-0.31l1.59-0.32l1.58-0.34l1.58-0.35l3.16-0.71
				c1.01-0.24,2.02-0.47,3.02-0.71l0.42,0.47l0.36,0.41l0.02-0.54l0.02-0.48l2.21-0.56l2.36-0.62c0.78-0.21,1.57-0.42,2.35-0.64
				C99.3,112.65,100.09,112.44,100.87,112.21z"/>
		</g>
	</g>
</g>
</svg>
