<?xml version="1.0" encoding="utf-8"?>
<!-- Generator: Adobe Illustrator 25.2.3, SVG Export Plug-In . SVG Version: 6.00 Build 0)  -->
<svg version="1.1" id="Слой_1" xmlns="http://www.w3.org/2000/svg" xmlns:xlink="http://www.w3.org/1999/xlink" x="0px" y="0px"
	 viewBox="0 0 166 172" style="enable-background:new 0 0 166 172;" xml:space="preserve">
<style type="text/css">
	.st0{fill:none;stroke:#009ACF;stroke-width:1.289;stroke-miterlimit:10;}
	.st1{fill:none;stroke:#009ACF;stroke-width:1.2959;stroke-miterlimit:10;}
	.st2{fill:none;stroke:#009ACF;stroke-width:0.6905;stroke-miterlimit:10;}
	.st3{fill:#FFFFFF;stroke:#009ACF;stroke-width:1.9248;stroke-miterlimit:10;}
	.st4{clip-path:url(#SVGID_2_);fill:#FFFFFF;stroke:#009ACF;stroke-width:1.4779;stroke-miterlimit:10;}
	.st5{fill:none;stroke:#009ACF;stroke-width:1.4563;stroke-miterlimit:10;}
	.st6{fill:none;stroke:#009ACF;stroke-width:1.6598;stroke-miterlimit:10;}
	.st7{fill:none;stroke:#009ACF;stroke-width:1.5573;stroke-linecap:round;stroke-linejoin:round;stroke-miterlimit:10;}
</style>
<g>
	<g>
		<path class="st0" d="M148.83,17.73c2.56,8.94,3.94,18.54,3.94,28.53c0,48.17-32.28,87.22-72.09,87.22S8.59,94.43,8.59,46.26
			c0-10.34,1.49-20.27,4.22-29.47L148.83,17.73z"/>
		<path class="st1" d="M46.5,46.26c0,0-36.6,3.57-18.53,47.95c19.38,34.54,52.71,31.97,52.71,31.97"/>
		<line class="st0" x1="8.59" y1="46.26" x2="152.77" y2="46.26"/>
		<circle class="st0" cx="80.68" cy="31.64" r="5.1"/>
		<circle class="st0" cx="80.68" cy="68.02" r="9.52"/>
		<circle class="st2" cx="80.68" cy="68.02" r="5.1"/>
		<path class="st1" d="M112.99,46.26c0,0,36.6,3.57,18.53,47.95c-19.38,34.54-52.71,31.97-52.71,31.97"/>
	</g>
	<g>
		<circle class="st3" cx="110.91" cy="104.23" r="31.99"/>
		<g>
			<defs>
				<circle id="SVGID_1_" cx="110.91" cy="104.23" r="24.56"/>
			</defs>
			<use xlink:href="#SVGID_1_"  style="overflow:visible;fill:#FFFFFF;"/>
			<clipPath id="SVGID_2_">
				<use xlink:href="#SVGID_1_"  style="overflow:visible;"/>
			</clipPath>
			<path class="st4" d="M75.73,77.3v61.52h48.4v-28.57l-4.63,1.08l-4.33-5.95l-5.25,3.01l-4.94-3.01l-2.01,1.16l1.39-4.48
				c0,0,2.16,2.93,3.09,2.16c0.93-0.77,5.41-6.18,5.41-6.18l6.18,4.63l5.1-4.02V77.3H75.73z"/>
		</g>
		<circle class="st5" cx="110.91" cy="104.23" r="24.2"/>
		<polyline class="st6" points="128.66,130.77 132.99,135.11 138.73,129.43 134.71,124.83 		"/>
		<polyline class="st7" points="157.41,144.1 141.56,127.46 130.31,138.17 146.53,155.21 		"/>
	</g>
</g>
</svg>
