<?xml version="1.0" encoding="utf-8"?>
<!-- Generator: Adobe Illustrator 21.1.0, SVG Export Plug-In . SVG Version: 6.00 Build 0)  -->
<svg version="1.1" id="Слой_1" xmlns="http://www.w3.org/2000/svg" xmlns:xlink="http://www.w3.org/1999/xlink" x="0px" y="0px"
	 viewBox="0 0 1000 884.1" style="enable-background:new 0 0 1000 884.1;" xml:space="preserve">
<style type="text/css">
	.st0{fill:#FFFFFF;}
</style>
<g>
	<rect x="7.7" y="6.6" width="987.4" height="862.5"/>
	<g>
		<rect x="487.1" y="159.1" class="st0" width="31.7" height="239.3"/>
		<polygon class="st0" points="233.1,159.1 201.4,159.1 201.4,398.5 420.2,398.5 420.2,371.4 233.1,371.4 		"/>
	</g>
	<path class="st0" d="M492.1,546.7L492.1,546.7c-2.6-14.2-6.7-25.8-12-34.5c-4.7-8.4-11.1-15.3-19.2-20.5c-8.1-5.2-18.3-9-30.4-11.3
		c-12.4-2.3-27.5-3.4-44.3-3.4H200.6v239.6h185.5c0.4,0,0.8,0,1.2,0c16.6,0,31-1.2,43.1-3.5c12.2-2.3,22.4-6.1,30.4-11.2
		c8-5.2,14.5-12.1,19.2-20.5c5.3-8.7,9.4-20.4,12-34.6c2.5-13.9,3.8-30.8,3.8-50.2C495.9,577.4,494.6,560.6,492.1,546.7z
		 M463.1,598.1c0,17.6-1,31.5-2.9,42.7c-2,11.2-5,20.2-8.9,26.5c-4.5,7.2-12.1,12.8-22.4,16.6c-10.6,3.8-24.2,5.7-40.6,5.7H232.4
		V504.1h153.8c11.8,0,22.1,0.7,30.7,2.2c8.4,1.5,15.5,3.8,21.1,6.8c5.4,3,9.7,6.8,12.7,11.4C458.9,537.4,463.1,562.1,463.1,598.1z"
		/>
	<polygon class="st0" points="608.9,688.5 831.2,504.5 832.2,503.7 832.2,476 566.8,476 566.8,505.1 780.5,505.1 558.2,689.1 
		557.2,689.9 557.2,717.7 836.1,717.7 836.1,688.5 	"/>
	<polygon class="st0" points="772.8,160.4 597.7,160.4 597.7,221.9 729.3,221.9 597.7,353.4 641.2,396.9 772.8,265.4 772.8,396.9 
		834.3,396.9 834.3,221.9 834.3,160.4 	"/>
</g>
</svg>
