<svg id="Слой_1" data-name="Слой 1" xmlns="http://www.w3.org/2000/svg" viewBox="0 0 841.89 595.28"><defs><style>.cls-1{fill:#0095f2;}.cls-2{fill:none;stroke:#0095f2;stroke-miterlimit:10;stroke-width:4px;}.cls-3,.cls-4{fill:#fff;}.cls-3{fill-rule:evenodd;}</style></defs><path class="cls-1" d="M526.67,296.05c-.18-2.37-.73-6.84-6.39-6.84-3.28,0-5.65,1.91-5.65,5,0,3.92,2,5.47,14.14,10.86,12.6,5.57,15.52,12.32,15.52,19.53,0,9.86-5.75,20.91-23.55,20.91-19.53,0-24.83-13.15-24.83-21.82v-2.19h17.16c0,7.85,4.48,9.49,7.4,9.49,4.65,0,6.57-3,6.57-6.2,0-4.39-2.37-6-12.87-10.5-4.75-2-16.8-6.85-16.8-19.54,0-13,11.78-20.08,23.65-20.08,7,0,13.87,2.65,18.25,7.85,3.93,4.93,4.2,9.68,4.48,13.51Z"/><path class="cls-1" d="M561,291.49H547.67V276.34h43.81v15.15H578.25v52.4H561Z"/><path class="cls-1" d="M630,274.69c21,0,35.78,16.43,35.78,35.42S651,345.53,629.91,345.53a35,35,0,0,1-35.6-34.6,36.81,36.81,0,0,1,2.47-14.51A35.47,35.47,0,0,1,630,274.69Zm.27,55.68c12.32,0,18.26-11.31,18.26-20.17s-5.85-20.35-18.44-20.35c-12.23,0-18.53,10.49-18.53,20.08C611.57,320.52,618.5,330.37,630.28,330.37Z"/><path class="cls-1" d="M742,318.6a34.87,34.87,0,0,1-34.14,26.93A35.23,35.23,0,0,1,672.18,310c0-17.62,13-35.33,35.51-35.33A34.57,34.57,0,0,1,742,302H723.94c-1.92-5.21-6.67-12.14-16.34-12.14-12,0-18.17,10-18.17,20.08,0,10.68,6.66,20.44,18.26,20.44,11.23,0,15.24-9.4,16.25-11.77Z"/><path class="cls-1" d="M751.32,276.34h17.25v30.39h.18l19.08-30.39h18.08L783.54,310l23.83,33.87H787.19l-18.44-29.22h-.18v29.22H751.32Z"/><rect class="cls-1" x="21.54" y="252.97" width="458.02" height="114.28"/><rect class="cls-2" x="340.9" y="254.84" width="480.56" height="110"/><path class="cls-3" d="M175.8,276.65H163.25c-12.72,22.35-25.59,44.62-38.33,67h25.2l5.12-9.93h41.38l5,9.93h25.14l-38.2-67Zm0,41.23H163.63l12.16-24.11v0L188,317.88Z"/><path class="cls-3" d="M412.25,282.17a49.39,49.39,0,0,0-17.15-4.9,105.69,105.69,0,0,0-11.24-.62c-3.87,0-7.74.05-11.62.05H338.75v66.9h45.11c3.68,0,7.93-.22,11.39-.6,15.22-1.65,24.76-8.07,29.63-16.49A32.09,32.09,0,0,0,429,311.87v-3.06a31.41,31.41,0,0,0-7.87-20A32.11,32.11,0,0,0,412.25,282.17Zm-13.2,41.28a3.55,3.55,0,0,1-.62.32h0a26.73,26.73,0,0,1-9.88,2.34c-1.8.15-3.48.22-4.69.22H360.79V293.91h23.07a56.81,56.81,0,0,1,9.47.86,19.73,19.73,0,0,1,5.13,1.71,15.69,15.69,0,0,1,5.15,4.2,15.08,15.08,0,0,1,3.32,9.44A15.42,15.42,0,0,1,399.05,323.45Z"/><rect class="cls-4" x="440.19" y="276.71" width="21.8" height="66.9"/><path class="cls-3" d="M57.29,323.13Z"/><path class="cls-3" d="M57.28,323.13h0S57.28,323,57.28,323.13Z"/><path class="cls-3" d="M113.91,306.17a19,19,0,0,0-2.59-1.33,33,33,0,0,0-5.38-1.69A56.13,56.13,0,0,0,98.61,302c-3.88-.36-7.79-.49-11.68-.57-4.34-.09-8.68,0-13-.07-3,0-6,0-9-.2a12.18,12.18,0,0,1-5.49-1.56,3.91,3.91,0,0,1-2-3.44,4,4,0,0,1,2.33-3.57,9.6,9.6,0,0,1,2-.8,21.48,21.48,0,0,1,4.85-.68c1.94-.09,3.88-.11,5.82-.12,4.76,0,9.54,0,14.3.11,1.06,0,2.12.07,3.17.14a23,23,0,0,1,3.19.41A10.42,10.42,0,0,1,98.18,294a4.41,4.41,0,0,1,1.44,3h22.19c.23-1.81,1.79-20.73-34.35-21.71-3.15-.08-6.4-.15-9.66-.14-12.77,0-25.63,1.12-33.4,6.42-5.66,3.84-8.89,8.6-9.22,14.92-.33,6.56,2.71,13.26,9.89,17.75a31.1,31.1,0,0,0,15.61,4.2l10.24.23c4.58,0,9.17.06,13.75.13,2.53,0,5.08,0,7.61.12a24.12,24.12,0,0,1,3.94.44c2.16.46,4.37,2,4.35,4.41a3.57,3.57,0,0,1-1.12,2.63c-2.1,2-5.87,2.32-8.61,2.49-3.87.23-7.76.21-11.64.19-2.62,0-5.26,0-7.88-.08-1.29,0-2.58-.12-3.86-.24A23.63,23.63,0,0,1,62,327.63a8.73,8.73,0,0,1-3.95-2.47,3.1,3.1,0,0,1-.77-1.86,1.39,1.39,0,0,1,0-.17H35a7.46,7.46,0,0,0-.07,1.22c0,2.61.9,8.48,7.15,13.21,6.09,4.63,18.09,8,37.62,7.51,17.09-.4,27.69-2.13,35.14-7.22C127,329.55,125.87,313.67,113.91,306.17Z"/><polygon class="cls-3" points="304.87 317.02 262.34 276.69 235.04 276.69 235.04 343.61 257.02 343.61 257.02 299.3 303.95 343.61 326.68 343.61 326.68 276.68 304.87 276.68 304.87 317.02"/></svg>