<?xml version="1.0" encoding="utf-8"?>
<!-- Generator: Adobe Illustrator 21.0.2, SVG Export Plug-In . SVG Version: 6.00 Build 0)  -->
<svg version="1.1" id="Слой_1" xmlns="http://www.w3.org/2000/svg" xmlns:xlink="http://www.w3.org/1999/xlink" x="0px" y="0px"
	 viewBox="0 0 1000 1000" style="enable-background:new 0 0 1000 1000;" xml:space="preserve">
<style type="text/css">
	.st0{fill:none;}
	.st1{fill:#9D9D9D;}
</style>
<rect x="-0.5" y="1.3" class="st0" width="1000" height="1000"/>
<path class="st1" d="M554.7,595.2c8.4,8.6,16.5,17.1,24.8,25.4c42.3,42.3,133.7,129.4,176.1,171.6c11.3,11.2,25.5,11,36.9-0.6
	c11.8-11.9,11.9-25.2,0.3-36.8C744.4,706.6,647,613.4,598.5,565.2c-2.2-2.2-3.5-3.8-6.9-6.9c41.7-55.9,55.6-115.2,42-181.6
	c-11.2-55-40.5-99.1-85.7-132.3c-89.3-65.7-215.3-53.6-290.9,27.4c-76.1,81.6-79.4,206.9-8.1,291.7
	C321.8,650.3,454.4,671.3,554.7,595.2z M255.9,425.2c0.2-90.5,73.4-163.1,164.1-162.9c88.9,0.2,162.4,73.7,162.3,162.4
	c0,90.7-72.9,163.5-163.5,163.5C328.5,588.2,255.7,515.3,255.9,425.2z"/>
</svg>
